<?xml version="1.0" encoding="utf-8"?><!-- Uploaded to: SVG Repo, www.svgrepo.com, Generator: SVG Repo Mixer Tools -->
<svg width="800px" height="800px" viewBox="-12 -12 125 125" xmlns="http://www.w3.org/2000/svg" xmlns:xlink="http://www.w3.org/1999/xlink" aria-hidden="true" role="img" class="iconify iconify--gis" preserveAspectRatio="xMidYMid meet"><path d="M50 5L24.637 30.469H41.34v20.705h17.32V30.469h16.703zM28.135 37.309a3.5 3.5 0 0 0-2.668 1.234L.832 67.559a3.5 3.5 0 0 0 2.67 5.765l93-.064a3.5 3.5 0 0 0 2.666-5.766L74.59 38.543a3.5 3.5 0 0 0-2.668-1.234H64.66c-.002 2.333-.008 4.666-.008 7h5.649l18.64 21.957l-77.873.052l18.686-22.01h5.586c.002-2.333.003-4.666 0-7zM89.91 78.264l-9.178.007l8.211 9.67l-77.875.053l8.22-9.682l-9.188.008L.832 89.234A3.5 3.5 0 0 0 3.502 95l93-.064a3.5 3.5 0 0 0 2.666-5.766z" fill="#5b5b5b"></path></svg>
