<?xml version="1.0" encoding="UTF-8" standalone="no"?>
<svg
   viewBox="0 0 960 960"
   version="1.1"
   id="svg42107"
   sodipodi:docname="gps_ok.svg"
   inkscape:version="1.1 (c68e22c387, 2021-05-23)"
   xmlns:inkscape="http://www.inkscape.org/namespaces/inkscape"
   xmlns:sodipodi="http://sodipodi.sourceforge.net/DTD/sodipodi-0.dtd"
   xmlns="http://www.w3.org/2000/svg"
   xmlns:svg="http://www.w3.org/2000/svg">
  <defs
     id="defs42111" />
  <sodipodi:namedview
     id="namedview42109"
     pagecolor="#ffffff"
     bordercolor="#666666"
     borderopacity="1.0"
     inkscape:pageshadow="2"
     inkscape:pageopacity="0.0"
     inkscape:pagecheckerboard="0"
     inkscape:document-units="pt"
     showgrid="false"
     inkscape:zoom="0.64375"
     inkscape:cx="639.2233"
     inkscape:cy="640.7767"
     inkscape:window-width="1920"
     inkscape:window-height="1009"
     inkscape:window-x="1912"
     inkscape:window-y="-8"
     inkscape:window-maximized="1"
     inkscape:current-layer="svg42107" />
  <g
     id="#ffffffff" />
  <g
     id="#000000ff"
     style="fill:#969696;fill-opacity:1">
    <path
       fill="#000000"
       opacity="1.00"
       d=" M 148.13 161.15 C 163.63 155.07 180.64 154.21 197.07 155.61 C 206.63 156.56 216.25 158.17 225.22 161.70 C 225.07 172.10 225.20 182.51 225.16 192.91 C 211.22 184.96 194.80 182.40 178.93 183.11 C 167.89 183.73 156.99 188.28 149.31 196.32 C 141.46 204.15 137.21 215.01 136.24 225.94 C 135.47 236.06 136.10 246.53 139.90 256.04 C 142.92 263.67 148.33 270.37 155.31 274.72 C 162.34 279.14 170.74 281.03 178.99 281.00 C 185.66 281.11 192.48 280.36 198.65 277.66 C 198.69 267.95 198.65 258.24 198.67 248.52 C 188.74 248.51 178.82 248.52 168.89 248.52 C 168.83 239.52 168.88 230.51 168.87 221.51 C 189.94 221.50 211.01 221.50 232.08 221.51 C 232.14 243.34 232.09 265.17 232.10 287.00 C 232.04 290.22 232.30 293.45 231.88 296.65 C 217.86 304.34 201.96 308.05 186.06 308.74 C 170.81 309.60 155.08 308.18 140.95 302.06 C 127.22 296.16 115.51 285.49 108.82 272.09 C 102.84 260.38 100.67 247.06 100.76 234.01 C 100.71 222.50 102.69 210.88 107.28 200.29 C 114.97 182.50 130.06 168.11 148.13 161.15 Z"
       id="path42092"
       style="fill:#969696;fill-opacity:1" />
    <path
       fill="#000000"
       opacity="1.00"
       d=" M 404.77 163.75 C 415.71 157.46 428.52 155.40 440.98 155.03 C 454.18 154.93 467.64 155.99 480.07 160.76 C 480.10 171.14 480.07 181.52 480.09 191.91 C 468.41 184.11 454.02 180.71 440.07 181.67 C 433.84 182.31 427.09 183.92 422.73 188.77 C 418.95 192.78 418.85 199.45 422.20 203.76 C 425.87 208.61 431.41 211.52 436.73 214.20 C 449.58 220.31 463.65 224.84 474.24 234.77 C 481.05 240.92 485.45 249.62 486.31 258.77 C 487.24 268.60 486.14 279.15 480.62 287.58 C 474.72 297.08 464.45 302.99 453.86 305.80 C 440.91 309.15 427.35 309.61 414.08 308.30 C 404.17 307.26 394.21 305.20 385.24 300.73 C 385.23 289.68 385.24 278.63 385.23 267.59 C 398.60 278.83 416.71 284.32 434.06 281.99 C 439.28 281.15 444.77 279.50 448.43 275.47 C 452.07 271.46 452.30 265.09 449.44 260.59 C 446.57 256.09 441.96 253.11 437.39 250.58 C 423.34 243.13 406.92 239.26 395.63 227.36 C 384.93 216.89 382.33 200.35 386.31 186.32 C 389.08 176.70 396.13 168.65 404.77 163.75 Z"
       id="path42094"
       style="fill:#969696;fill-opacity:1" />
    <path
       fill="#000000"
       opacity="1.00"
       d=" M 261.51 157.51 C 278.67 157.49 295.84 157.51 313.01 157.50 C 323.14 157.56 333.45 158.41 343.03 161.93 C 350.75 164.74 357.94 169.57 362.59 176.44 C 368.32 184.74 370.27 195.06 370.19 205.00 C 370.29 215.06 367.46 225.30 361.35 233.39 C 353.80 243.54 342.23 250.24 329.97 252.94 C 318.53 255.69 306.68 254.88 295.02 255.02 C 295.02 272.18 295.04 289.35 295.01 306.51 C 283.84 306.52 272.67 306.52 261.50 306.51 C 261.50 256.84 261.50 207.17 261.51 157.51 M 295.02 183.02 C 295.02 198.51 295.03 214.00 295.02 229.49 C 304.79 229.16 315.24 230.88 324.32 226.33 C 330.02 223.61 333.68 217.78 334.57 211.64 C 335.55 204.75 335.11 197.03 330.73 191.30 C 326.95 186.35 320.71 184.08 314.71 183.35 C 308.17 182.69 301.58 183.14 295.02 183.02 Z"
       id="path42096"
       style="fill:#969696;fill-opacity:1" />
    <path
       fill="#000000"
       opacity="1.00"
       d=" M 692.24 226.28 C 734.58 226.29 776.91 226.33 819.25 226.26 C 819.45 397.67 819.16 569.08 819.24 740.49 C 776.88 740.51 734.53 740.50 692.18 740.49 C 692.15 569.09 692.26 397.68 692.24 226.28 Z"
       id="path42098"
       style="fill:#969696;fill-opacity:1" />
    <path
       fill="#000000"
       opacity="1.00"
       d=" M 495.65 313.35 C 538.01 313.35 580.36 313.35 622.72 313.35 C 622.73 455.74 622.73 598.12 622.71 740.50 C 580.36 740.62 538.01 740.51 495.66 740.57 C 495.65 598.16 495.66 455.76 495.65 313.35 Z"
       id="path42100"
       style="fill:#969696;fill-opacity:1" />
    <path
       fill="#000000"
       opacity="1.00"
       d=" M 299.14 400.35 C 341.54 400.40 383.94 400.25 426.34 400.42 C 426.24 513.76 426.33 627.10 426.30 740.44 C 383.90 740.46 341.51 740.45 299.11 740.44 C 299.15 627.08 299.11 513.71 299.14 400.35 Z"
       id="path42102"
       style="fill:#969696;fill-opacity:1" />
    <path
       fill="#000000"
       opacity="1.00"
       d=" M 102.63 487.41 C 144.99 487.45 187.35 487.43 229.72 487.43 C 229.74 568.28 229.72 649.14 229.73 730.00 C 229.70 733.50 229.81 737.01 229.62 740.51 C 187.29 740.35 144.95 740.52 102.61 740.43 C 102.63 656.09 102.60 571.75 102.63 487.41 Z"
       id="path42104"
       style="fill:#969696;fill-opacity:1" />
  </g>
</svg>
