<?xml version="1.0" encoding="UTF-8" standalone="no"?>
<svg
   viewBox="0 0 960 960"
   version="1.1"
   id="svg41465"
   sodipodi:docname="gps_no.svg"
   inkscape:version="1.1 (c68e22c387, 2021-05-23)"
   xmlns:inkscape="http://www.inkscape.org/namespaces/inkscape"
   xmlns:sodipodi="http://sodipodi.sourceforge.net/DTD/sodipodi-0.dtd"
   xmlns="http://www.w3.org/2000/svg"
   xmlns:svg="http://www.w3.org/2000/svg">
  <defs
     id="defs41469" />
  <sodipodi:namedview
     id="namedview41467"
     pagecolor="#ffffff"
     bordercolor="#666666"
     borderopacity="1.0"
     inkscape:pageshadow="2"
     inkscape:pageopacity="0.0"
     inkscape:pagecheckerboard="0"
     inkscape:document-units="pt"
     showgrid="false"
     inkscape:zoom="0.64375"
     inkscape:cx="639.2233"
     inkscape:cy="640.7767"
     inkscape:window-width="1920"
     inkscape:window-height="1009"
     inkscape:window-x="1912"
     inkscape:window-y="-8"
     inkscape:window-maximized="1"
     inkscape:current-layer="svg41465" />
  <g
     id="#ffffffff" />
  <g
     id="#000000ff"
     style="fill:#ff0000">
    <path
       fill="#000000"
       opacity="1.00"
       d=" M 143.27 163.25 C 156.54 156.91 171.43 154.83 186.02 155.02 C 199.28 155.42 212.81 156.83 225.23 161.76 C 225.06 172.14 225.20 182.53 225.16 192.92 C 211.23 184.95 194.81 182.41 178.94 183.11 C 167.90 183.73 157.00 188.27 149.32 196.31 C 141.47 204.13 137.22 214.99 136.25 225.91 C 135.47 236.04 136.09 246.52 139.90 256.04 C 142.92 263.68 148.34 270.38 155.32 274.73 C 162.35 279.14 170.75 281.03 178.99 281.00 C 185.67 281.11 192.48 280.37 198.64 277.66 C 198.66 267.94 198.71 258.22 198.61 248.50 C 188.74 248.57 178.87 248.45 169.00 248.56 C 168.69 239.55 168.95 230.53 168.87 221.51 C 189.94 221.49 211.01 221.49 232.07 221.51 C 232.10 246.35 232.17 271.20 232.04 296.04 L 231.69 296.62 C 218.43 304.20 203.18 307.66 188.05 308.64 C 172.65 309.65 156.75 308.54 142.34 302.65 C 128.25 296.95 116.12 286.30 109.15 272.75 C 102.92 260.88 100.66 247.30 100.76 234.00 C 100.72 223.24 102.44 212.40 106.42 202.37 C 113.17 185.30 126.68 171.07 143.27 163.25 Z"
       id="path41448"
       style="fill:#ff0000" />
    <path
       fill="#000000"
       opacity="1.00"
       d=" M 404.14 164.12 C 415.20 157.54 428.28 155.41 440.98 155.03 C 454.17 154.95 467.67 155.95 480.08 160.79 C 480.08 171.16 480.08 181.53 480.08 191.90 C 468.40 184.11 454.02 180.71 440.08 181.67 C 433.85 182.31 427.10 183.92 422.74 188.76 C 419.31 192.42 418.85 198.32 421.43 202.58 C 423.80 206.52 427.71 209.17 431.58 211.48 C 440.69 216.74 450.82 219.88 460.02 224.94 C 468.22 229.29 476.10 234.97 481.04 242.98 C 486.76 252.18 487.55 263.61 485.80 274.08 C 484.29 283.59 478.70 292.27 470.92 297.89 C 464.92 302.23 457.90 305.00 450.70 306.58 C 439.97 308.90 428.89 309.44 417.96 308.63 C 406.74 307.78 395.40 305.77 385.24 300.73 C 385.22 289.69 385.25 278.64 385.22 267.59 C 398.60 278.82 416.70 284.33 434.05 281.99 C 439.27 281.16 444.76 279.50 448.44 275.47 C 451.89 271.65 452.29 265.67 449.81 261.23 C 447.56 257.26 443.81 254.41 439.98 252.08 C 431.78 247.12 422.63 244.09 414.00 240.01 C 404.77 235.54 395.87 229.46 390.32 220.64 C 384.43 211.24 383.43 199.46 385.67 188.78 C 387.88 178.37 395.05 169.44 404.14 164.12 Z"
       id="path41450"
       style="fill:#ff0000" />
    <path
       fill="#000000"
       opacity="1.00"
       d=" M 261.51 157.51 C 279.00 157.49 296.50 157.51 314.00 157.50 C 324.05 157.63 334.28 158.57 343.74 162.20 C 351.18 165.03 358.07 169.77 362.58 176.43 C 368.32 184.72 370.27 195.06 370.18 205.00 C 370.30 215.29 367.32 225.78 360.93 233.95 C 353.16 244.08 341.37 250.62 328.96 253.17 C 317.82 255.65 306.34 254.88 295.02 255.02 C 295.01 272.18 295.04 289.34 295.01 306.51 C 283.84 306.52 272.67 306.52 261.50 306.51 C 261.50 256.84 261.50 207.17 261.51 157.51 M 295.02 183.02 C 295.02 198.51 295.02 214.00 295.03 229.49 C 300.67 229.47 306.32 229.59 311.96 229.40 C 318.72 228.99 326.00 226.94 330.40 221.45 C 335.04 215.57 335.60 207.52 334.55 200.36 C 333.64 194.21 329.73 188.54 324.02 185.95 C 314.96 181.65 304.69 183.36 295.02 183.02 Z"
       id="path41452"
       style="fill:#ff0000" />
    <path
       fill="#000000"
       opacity="1.00"
       d=" M 692.24 226.28 C 734.55 226.26 776.86 226.38 819.16 226.22 C 819.38 228.47 819.32 230.74 819.31 233.00 C 819.31 338.61 819.32 444.21 819.31 549.82 C 799.45 539.54 777.34 533.72 754.99 532.99 C 733.55 532.34 712.00 536.50 692.24 544.85 C 692.23 438.66 692.22 332.47 692.24 226.28 Z"
       id="path41454"
       style="fill:#ff0000" />
    <path
       fill="#000000"
       opacity="1.00"
       d=" M 495.62 313.42 C 537.99 313.26 580.35 313.40 622.72 313.35 C 622.75 410.26 622.70 507.16 622.74 604.06 C 623.03 605.93 621.83 607.45 621.01 609.00 C 610.87 626.79 604.49 646.71 602.43 667.08 C 599.83 691.99 604.01 717.45 613.75 740.47 C 574.39 740.41 535.02 740.48 495.66 740.44 C 495.63 598.10 495.70 455.76 495.62 313.42 Z"
       id="path41456"
       style="fill:#ff0000" />
    <path
       fill="#000000"
       opacity="1.00"
       d=" M 299.14 400.35 C 341.55 400.44 383.97 400.17 426.37 400.48 C 426.21 513.80 426.35 627.12 426.30 740.44 C 383.90 740.47 341.51 740.44 299.12 740.45 C 299.15 627.08 299.11 513.71 299.14 400.35 Z"
       id="path41458"
       style="fill:#ff0000" />
    <path
       fill="#000000"
       opacity="1.00"
       d=" M 102.60 487.46 C 144.98 487.39 187.35 487.45 229.72 487.43 C 229.73 568.62 229.72 649.81 229.72 731.00 C 229.69 734.17 229.85 737.35 229.58 740.53 C 187.26 740.33 144.94 740.53 102.61 740.43 C 102.61 656.11 102.63 571.78 102.60 487.46 Z"
       id="path41460"
       style="fill:#ff0000" />
    <path
       fill="#000000"
       opacity="1.00"
       d=" M 742.30 575.43 C 763.55 573.78 785.31 578.53 803.81 589.16 C 826.81 602.20 844.59 624.14 852.45 649.40 C 862.22 679.95 857.42 714.84 839.38 741.42 C 828.98 756.88 814.51 769.62 797.73 777.75 C 768.49 792.24 732.53 792.22 703.31 777.70 C 686.12 769.29 671.34 756.08 660.97 740.01 C 646.90 718.35 641.18 691.47 645.07 665.95 C 647.94 646.04 656.61 627.01 669.83 611.84 C 687.89 590.72 714.59 577.38 742.30 575.43 M 710.01 631.89 C 703.96 633.52 699.53 639.77 700.21 646.04 C 700.33 650.12 702.79 653.64 705.70 656.31 C 714.18 664.84 722.81 673.25 731.18 681.90 C 722.13 690.94 713.08 699.98 704.04 709.03 C 699.54 713.34 698.50 720.76 701.89 726.04 C 705.11 731.69 712.73 734.21 718.70 731.62 C 721.88 730.43 724.08 727.74 726.43 725.43 C 734.51 717.37 742.56 709.26 750.67 701.23 C 759.99 710.61 769.32 719.99 778.79 729.21 C 783.91 734.03 792.74 733.65 797.51 728.52 C 802.50 723.71 802.84 715.03 798.06 709.96 C 788.77 700.54 779.34 691.25 770.02 681.85 C 778.99 672.87 787.95 663.89 796.95 654.94 C 800.33 651.67 802.01 646.63 800.88 642.02 C 799.71 636.39 794.60 631.90 788.89 631.37 C 784.47 630.85 780.01 632.81 777.02 636.03 C 768.32 644.84 759.43 653.47 750.82 662.37 C 741.10 653.39 732.09 643.63 722.54 634.47 C 719.14 631.60 714.26 630.52 710.01 631.89 Z"
       id="path41462"
       style="fill:#ff0000" />
  </g>
</svg>
