<?xml version="1.0" encoding="UTF-8" standalone="no"?>
<svg
   viewBox="0 0 960 960"
   version="1.1"
   id="svg41777"
   sodipodi:docname="gps_bad.svg"
   inkscape:version="1.1 (c68e22c387, 2021-05-23)"
   xmlns:inkscape="http://www.inkscape.org/namespaces/inkscape"
   xmlns:sodipodi="http://sodipodi.sourceforge.net/DTD/sodipodi-0.dtd"
   xmlns="http://www.w3.org/2000/svg"
   xmlns:svg="http://www.w3.org/2000/svg">
  <defs
     id="defs41781" />
  <sodipodi:namedview
     id="namedview41779"
     pagecolor="#ffffff"
     bordercolor="#666666"
     borderopacity="1.0"
     inkscape:pageshadow="2"
     inkscape:pageopacity="0.0"
     inkscape:pagecheckerboard="0"
     inkscape:document-units="pt"
     showgrid="false"
     inkscape:zoom="0.64375"
     inkscape:cx="639.2233"
     inkscape:cy="640.7767"
     inkscape:window-width="1920"
     inkscape:window-height="1009"
     inkscape:window-x="1912"
     inkscape:window-y="-8"
     inkscape:window-maximized="1"
     inkscape:current-layer="svg41777" />
  <g
     id="#ffffffff" />
  <g
     id="#000000ff"
     style="fill:#969696;fill-opacity:1">
    <path
       fill="#000000"
       opacity="1.00"
       d=" M 139.30 165.27 C 152.29 158.08 167.25 155.25 181.97 155.02 C 196.58 154.95 211.38 156.57 225.17 161.58 C 225.14 172.03 225.16 182.47 225.17 192.92 C 214.49 186.82 202.27 183.87 190.06 183.17 C 183.46 182.85 176.76 182.79 170.31 184.42 C 157.89 187.27 147.06 195.99 141.39 207.37 C 137.56 214.97 135.97 223.55 135.97 232.02 C 135.83 240.66 136.98 249.47 140.49 257.43 C 143.78 264.94 149.45 271.42 156.59 275.49 C 163.36 279.37 171.23 281.02 178.99 281.00 C 185.67 281.12 192.47 280.35 198.65 277.67 C 198.67 267.95 198.67 258.23 198.65 248.51 C 188.72 248.52 178.80 248.51 168.87 248.52 C 168.86 239.51 168.86 230.51 168.87 221.51 C 189.94 221.50 211.01 221.50 232.08 221.51 C 232.16 245.34 232.06 269.18 232.13 293.01 C 231.90 294.31 232.70 296.36 231.06 296.99 C 217.64 304.44 202.30 307.84 187.07 308.69 C 171.74 309.63 155.93 308.36 141.66 302.36 C 127.63 296.52 115.62 285.72 108.82 272.09 C 102.83 260.37 100.67 247.05 100.76 234.00 C 100.72 222.99 102.52 211.89 106.70 201.67 C 112.97 186.28 124.76 173.28 139.30 165.27 Z"
       id="path41761"
       style="fill:#969696;fill-opacity:1" />
    <path
       fill="#000000"
       opacity="1.00"
       d=" M 404.15 164.12 C 415.21 157.54 428.29 155.40 440.98 155.03 C 454.18 154.93 467.64 156.00 480.07 160.75 C 480.10 171.13 480.07 181.51 480.09 191.90 C 468.67 184.29 454.67 180.87 441.03 181.61 C 434.48 182.13 427.33 183.70 422.73 188.76 C 418.96 192.78 418.85 199.45 422.20 203.75 C 426.19 209.00 432.28 212.01 438.07 214.85 C 450.54 220.60 464.01 225.20 474.23 234.76 C 481.05 240.92 485.46 249.62 486.30 258.77 C 487.24 268.60 486.13 279.16 480.62 287.59 C 474.71 297.08 464.46 302.99 453.87 305.80 C 441.90 308.90 429.39 309.52 417.09 308.57 C 406.16 307.66 395.13 305.64 385.24 300.74 C 385.22 289.69 385.25 278.64 385.22 267.59 C 398.60 278.82 416.70 284.33 434.05 281.99 C 439.28 281.16 444.77 279.50 448.44 275.47 C 451.89 271.65 452.29 265.67 449.81 261.23 C 447.81 257.67 444.56 255.01 441.17 252.82 C 429.99 245.67 416.75 242.60 405.61 235.36 C 398.38 230.77 391.83 224.62 388.22 216.74 C 384.20 208.04 383.75 198.00 385.69 188.72 C 387.90 178.34 395.07 169.43 404.15 164.12 Z"
       id="path41763"
       style="fill:#969696;fill-opacity:1" />
    <path
       fill="#000000"
       opacity="1.00"
       d=" M 261.50 157.50 C 278.67 157.50 295.84 157.51 313.00 157.50 C 323.38 157.56 333.96 158.45 343.73 162.20 C 351.18 165.03 358.08 169.78 362.59 176.44 C 368.51 185.01 370.38 195.73 370.18 205.98 C 370.12 215.96 367.11 226.04 360.93 233.95 C 353.16 244.07 341.39 250.61 328.99 253.16 C 317.84 255.65 306.35 254.88 295.02 255.02 C 295.02 272.18 295.03 289.35 295.02 306.51 C 283.84 306.52 272.67 306.52 261.50 306.51 C 261.50 256.84 261.50 207.17 261.50 157.50 M 295.02 183.02 C 295.03 198.51 295.02 214.00 295.03 229.50 C 300.67 229.46 306.32 229.61 311.96 229.40 C 318.72 228.99 326.00 226.94 330.41 221.45 C 335.04 215.57 335.60 207.53 334.55 200.37 C 333.65 194.23 329.75 188.55 324.04 185.96 C 314.98 181.65 304.70 183.36 295.02 183.02 Z"
       id="path41765"
       style="fill:#969696;fill-opacity:1" />
    <path
       fill="#000000"
       opacity="1.00"
       d=" M 299.13 400.35 C 341.53 400.36 383.92 400.33 426.31 400.36 C 426.29 513.72 426.31 627.08 426.30 740.44 C 383.91 740.47 341.51 740.44 299.12 740.45 C 299.14 627.09 299.12 513.72 299.13 400.35 Z"
       id="path41767"
       style="fill:#969696;fill-opacity:1" />
    <path
       fill="#000000"
       opacity="1.00"
       d=" M 102.62 487.43 C 144.98 487.43 187.35 487.44 229.72 487.43 C 229.72 571.77 229.75 656.11 229.71 740.46 C 187.34 740.43 144.98 740.48 102.61 740.43 C 102.62 656.10 102.61 571.77 102.62 487.43 Z"
       id="path41769"
       style="fill:#969696;fill-opacity:1" />
  </g>
  <g
     id="#959595ff"
     style="fill:#323232;fill-opacity:1">
    <path
       fill="#959595"
       opacity="1.00"
       d=" M 692.22 226.28 C 734.57 226.28 776.92 226.29 819.28 226.28 C 819.44 388.52 819.18 550.76 819.25 713.00 C 819.21 722.15 819.32 731.31 819.18 740.47 C 776.84 740.53 734.50 740.52 692.16 740.47 C 692.13 569.07 692.26 397.68 692.22 226.28 Z"
       id="path41772"
       style="fill:#323232;fill-opacity:1" />
    <path
       fill="#959595"
       opacity="1.00"
       d=" M 495.62 313.44 C 537.98 313.20 580.34 313.41 622.70 313.34 C 622.76 455.73 622.72 598.11 622.72 740.50 C 580.36 740.60 538.01 740.57 495.66 740.52 C 495.62 598.16 495.70 455.80 495.62 313.44 Z"
       id="path41774"
       style="fill:#323232;fill-opacity:1" />
  </g>
</svg>
