<?xml version="1.0" encoding="UTF-8" ?>
<!DOCTYPE svg PUBLIC "-//W3C//DTD SVG 1.1//EN" "http://www.w3.org/Graphics/SVG/1.1/DTD/svg11.dtd">
<svg width="852pt" height="852pt" viewBox="0 0 852 852" version="1.1" xmlns="http://www.w3.org/2000/svg">
<g id="#000000ff">
</g>
<g id="#ffffffff">
<path fill="#ffffff" opacity="1.00" d=" M 290.78 100.85 C 298.65 94.52 301.72 84.49 303.42 74.94 C 303.77 88.64 301.33 103.00 293.56 114.55 C 286.16 125.32 273.80 131.44 261.35 134.27 C 231.44 141.15 200.59 145.55 172.51 158.62 C 159.05 164.95 147.54 175.06 139.74 187.75 C 123.88 213.56 120.27 244.51 118.86 274.14 C 114.17 245.30 115.23 215.91 116.93 186.92 C 118.27 176.82 118.85 165.80 125.36 157.42 C 134.85 148.43 147.68 144.67 159.41 139.58 C 186.80 130.35 214.18 120.35 242.92 116.24 C 259.36 113.28 277.32 111.81 290.78 100.85 Z" />
<path fill="#ffffff" opacity="1.00" d=" M 763.00 353.99 C 778.82 333.04 787.66 307.28 789.83 281.23 C 795.83 307.05 791.04 335.24 776.43 357.42 C 766.80 372.49 753.07 384.59 737.80 393.75 C 710.68 410.43 679.27 417.50 648.61 424.50 C 618.33 430.89 587.97 439.12 556.78 438.60 C 560.28 443.64 563.93 448.57 567.12 453.82 C 597.18 453.34 627.25 456.24 656.87 461.31 C 669.54 463.89 682.92 466.38 693.54 474.25 C 683.37 475.92 673.43 478.81 663.84 482.57 C 683.21 497.22 703.73 512.52 715.51 534.25 C 711.91 535.65 708.17 536.81 704.87 538.87 C 679.62 557.75 641.64 556.21 617.12 536.85 C 603.42 523.95 588.67 512.27 574.62 499.77 C 578.11 507.64 582.65 515.13 588.70 521.32 C 597.49 531.52 606.02 542.15 612.10 554.23 C 602.30 547.31 590.89 542.49 578.97 540.93 C 600.33 554.98 612.81 583.29 605.20 608.24 C 598.69 593.73 584.45 583.76 569.46 579.51 C 574.99 594.24 575.44 610.20 574.48 625.73 C 573.15 631.04 572.72 636.73 569.37 641.29 C 550.75 637.80 533.51 651.27 526.88 667.97 C 522.24 681.39 517.99 695.01 515.05 708.93 C 513.23 716.49 511.42 724.68 505.55 730.24 C 505.31 719.39 503.60 707.28 495.52 699.29 C 496.28 721.71 492.12 747.35 474.50 762.96 C 474.88 753.51 474.83 743.90 472.10 734.75 C 465.62 748.27 456.86 762.04 442.81 768.61 C 446.48 756.45 446.89 742.85 441.42 731.16 C 452.63 727.05 461.06 718.09 467.48 708.33 C 484.39 700.42 495.13 682.53 495.01 663.97 C 494.46 652.34 506.14 646.39 513.15 639.10 C 505.88 629.27 495.08 622.63 483.89 618.12 C 480.29 616.86 475.98 614.62 472.56 617.49 C 453.21 626.95 430.82 634.05 409.26 628.66 C 399.29 626.39 389.50 623.17 380.29 618.72 C 377.76 617.65 375.33 615.10 372.38 616.27 C 358.75 620.07 346.45 628.18 337.19 638.84 C 345.27 624.43 358.16 612.21 374.22 607.40 C 389.94 615.48 407.42 620.77 425.00 622.67 C 424.68 617.21 426.33 611.11 422.47 606.53 C 406.46 576.92 395.71 542.38 401.61 508.55 C 406.74 495.40 411.80 482.18 415.49 468.54 C 416.07 467.13 414.89 465.96 414.14 464.91 C 402.18 449.83 386.49 436.47 367.23 432.31 C 370.96 424.14 380.15 420.85 388.00 417.99 C 395.92 414.50 405.47 414.29 412.02 408.06 C 419.41 399.09 423.55 387.95 426.37 376.81 C 427.65 369.35 426.38 361.67 427.94 354.24 C 430.24 348.67 433.40 343.01 438.70 339.78 C 446.02 335.56 454.57 334.80 462.78 333.76 C 484.28 332.26 506.03 334.78 526.42 341.82 C 523.52 344.18 521.20 347.14 519.03 350.16 C 525.01 352.61 531.69 353.18 537.96 354.85 C 539.26 355.40 540.64 355.69 542.02 356.00 C 561.32 361.42 584.98 364.20 597.03 382.20 C 588.08 381.76 579.23 383.63 571.00 387.05 C 576.29 388.82 581.36 391.30 585.78 394.73 C 617.27 386.97 650.15 384.66 680.69 373.12 C 680.19 385.32 692.13 395.83 704.16 393.39 C 727.65 387.81 748.52 373.17 763.00 353.99 M 398.53 430.43 C 403.49 434.45 407.18 439.71 411.11 444.68 C 430.27 442.11 449.98 434.87 463.20 420.19 C 465.84 417.16 469.37 415.02 471.60 411.63 C 450.09 425.12 424.24 434.81 398.53 430.43 M 434.89 467.25 C 438.68 481.08 443.35 494.68 448.95 507.89 C 457.19 510.50 465.39 513.40 473.81 515.34 C 479.26 514.45 484.59 512.88 489.98 511.65 C 486.78 536.11 482.77 560.73 474.55 584.07 C 489.38 565.02 499.91 543.02 512.46 522.56 C 521.03 519.35 531.27 523.04 539.35 518.32 C 543.65 509.45 544.68 499.36 546.91 489.83 C 540.20 486.10 536.38 477.81 538.44 470.32 C 540.05 463.12 546.69 457.84 553.93 457.13 C 545.90 448.44 533.94 443.52 522.10 444.74 C 499.73 447.14 479.93 460.18 463.84 475.24 C 456.54 458.97 468.42 441.93 481.46 432.81 C 462.11 437.58 446.53 451.62 434.89 467.25 M 465.50 522.93 C 459.88 549.73 447.08 574.24 434.54 598.33 C 447.53 587.82 455.51 572.64 463.10 558.07 C 465.12 566.45 466.74 575.06 466.44 583.72 C 471.18 573.51 471.88 562.01 471.89 550.92 C 471.04 541.43 470.55 531.29 465.50 522.93 Z" />
<path fill="#ffffff" opacity="1.00" d=" M 319.47 476.47 C 322.40 476.01 324.65 478.62 326.97 480.02 C 337.87 488.86 347.99 498.67 357.82 508.67 C 348.62 511.48 337.35 511.04 330.29 503.77 C 323.69 496.19 321.91 485.90 319.47 476.47 Z" />
<path fill="#ffffff" opacity="1.00" d=" M 494.21 508.44 C 506.39 497.56 517.03 484.36 531.49 476.42 C 529.49 485.29 527.44 494.56 522.09 502.09 C 515.60 510.35 503.65 511.16 494.21 508.44 Z" />
<path fill="#ffffff" opacity="1.00" d=" M 376.03 584.12 C 367.74 560.77 363.90 536.10 360.38 511.66 C 365.82 512.94 371.19 514.55 376.71 515.45 C 380.41 514.75 383.95 513.43 387.59 512.48 C 383.00 537.91 379.75 564.50 385.21 590.01 C 368.71 587.00 355.28 575.65 345.52 562.53 C 335.41 548.79 322.48 536.60 316.35 520.36 C 323.59 521.44 331.44 519.99 338.29 522.76 C 350.64 543.30 361.33 565.06 376.03 584.12 Z" />
<path fill="#ffffff" opacity="1.00" d=" M 370.42 657.51 C 376.23 656.36 381.94 662.23 380.97 668.02 C 379.47 677.93 386.45 686.62 394.42 691.53 C 410.88 701.53 432.31 702.41 449.89 694.85 C 460.52 690.34 471.48 680.41 469.56 667.75 C 468.14 660.08 479.76 653.11 484.45 660.56 C 488.36 671.02 485.59 683.26 479.13 692.15 C 469.27 705.85 452.74 713.30 436.36 715.55 C 415.15 718.32 391.72 713.23 376.19 697.79 C 366.98 688.82 361.96 675.09 365.36 662.43 C 365.90 659.95 367.93 657.99 370.42 657.51 Z" />
</g>
<g id="#7a7a7aff">
<path fill="#7a7a7a" opacity="1.00" d=" M 548.29 75.62 C 549.34 87.18 554.82 98.89 565.25 104.75 C 585.44 116.54 609.81 115.12 631.79 121.32 C 653.21 126.67 674.26 133.33 694.96 141.03 C 706.13 145.90 718.74 149.53 727.01 159.02 C 734.13 171.27 734.65 186.24 734.66 200.06 C 736.61 224.50 735.88 249.22 732.48 273.51 C 732.17 246.18 728.10 218.18 715.57 193.57 C 709.27 181.78 700.57 170.89 689.15 163.72 C 662.55 147.92 631.54 142.40 601.61 136.38 C 588.19 133.37 573.83 130.36 563.58 120.44 C 551.54 109.04 548.14 91.57 548.29 75.62 Z" />
<path fill="#7a7a7a" opacity="1.00" d=" M 60.64 282.26 C 64.09 320.16 82.04 358.28 114.42 379.70 C 123.58 385.78 133.80 390.04 144.14 393.64 C 156.17 395.38 167.91 384.91 167.29 372.65 C 198.60 384.95 232.49 387.40 265.04 394.79 C 269.44 391.30 274.57 388.90 279.81 386.97 C 271.70 383.25 262.77 381.42 253.85 382.13 C 257.81 374.35 264.92 368.97 272.03 364.25 C 258.42 360.51 244.79 356.74 230.91 354.19 C 210.96 351.21 190.58 350.84 170.98 345.75 C 155.09 342.34 139.23 334.92 129.71 321.24 C 160.72 338.01 196.85 338.41 230.95 343.14 C 250.91 346.57 270.49 351.97 290.12 356.89 C 303.59 353.78 317.28 351.57 331.09 350.51 C 328.62 345.78 324.30 342.51 320.79 338.62 C 342.27 335.29 364.14 337.45 385.70 338.96 C 372.13 354.56 360.42 372.14 343.31 384.28 C 333.93 391.57 323.39 397.54 315.45 406.52 C 310.40 412.25 307.65 419.53 305.82 426.85 C 320.74 427.24 334.96 432.87 347.73 440.27 C 362.31 448.94 376.12 459.61 385.73 473.79 C 371.94 461.47 355.94 450.83 337.87 446.15 C 323.58 441.92 307.29 445.64 297.06 456.70 C 305.01 457.52 312.16 463.83 313.00 471.94 C 314.26 479.56 309.43 486.70 302.97 490.30 C 301.67 495.73 301.86 501.43 300.79 506.92 C 298.01 501.73 295.80 496.27 293.40 490.90 C 304.55 482.28 299.47 462.69 285.59 460.45 C 284.86 452.58 284.71 444.47 287.40 436.92 C 279.64 443.76 272.23 451.01 264.13 457.46 C 267.14 450.36 271.90 444.31 276.28 438.05 C 250.45 435.76 225.28 429.36 199.98 424.01 C 174.61 418.06 148.81 412.43 125.41 400.54 C 100.29 388.26 77.45 368.85 66.51 342.57 C 58.22 323.75 56.46 302.33 60.64 282.26 Z" />
<path fill="#7a7a7a" opacity="1.00" d=" M 616.72 343.52 C 651.49 338.20 688.31 338.28 720.17 321.49 C 711.78 333.42 698.38 340.64 684.62 344.57 C 660.77 351.88 635.54 350.27 610.97 352.29 C 596.07 353.35 581.18 354.88 566.24 355.35 C 582.99 351.12 599.80 347.01 616.72 343.52 Z" />
<path fill="#7a7a7a" opacity="1.00" d=" M 145.26 466.12 C 171.97 455.20 200.81 450.61 229.33 447.46 C 204.67 454.50 178.42 459.51 156.89 474.18 C 167.08 475.90 176.99 478.89 186.69 482.44 C 167.36 497.19 146.92 512.47 134.99 534.17 C 144.61 537.14 152.97 542.94 160.43 549.55 C 177.62 559.42 197.61 565.03 217.47 564.56 C 219.84 555.40 222.67 546.09 228.60 538.53 C 239.69 523.41 255.96 513.66 270.17 501.86 C 267.78 507.58 265.24 513.36 261.13 518.09 C 252.47 529.38 244.75 541.43 238.53 554.23 C 248.25 547.62 259.30 542.65 271.04 541.18 C 250.11 555.45 237.66 583.26 245.15 608.10 C 251.57 594.15 265.22 583.31 280.14 580.23 C 275.90 588.11 276.22 597.37 274.61 605.95 C 274.61 617.95 274.24 630.96 280.63 641.60 C 282.48 645.11 286.88 643.25 290.00 643.57 C 298.41 643.77 307.54 643.52 315.00 647.98 C 323.61 654.83 329.30 664.78 333.21 674.92 C 325.76 667.23 318.43 658.47 308.02 654.80 C 294.60 651.86 280.78 654.43 267.29 654.90 C 262.99 652.23 258.94 649.04 255.71 645.12 C 253.73 647.55 251.80 650.01 249.79 652.42 C 235.55 633.27 223.22 610.13 226.45 585.47 C 221.16 591.44 216.18 597.71 210.50 603.33 C 211.61 590.83 213.62 578.36 217.07 566.27 C 198.59 573.41 177.58 574.00 158.62 568.39 C 150.59 566.33 144.50 560.38 137.23 556.74 C 129.04 551.69 119.69 549.24 110.60 546.36 C 115.75 523.59 130.59 504.53 148.10 489.72 C 137.54 488.06 126.95 486.58 116.42 484.71 C 124.45 476.40 134.73 470.67 145.26 466.12 Z" />
<path fill="#7a7a7a" opacity="1.00" d=" M 310.16 665.03 C 319.67 673.20 327.00 683.76 331.71 695.35 C 335.62 704.57 337.26 714.73 342.61 723.34 C 344.07 714.12 346.30 704.45 352.74 697.34 C 355.07 717.82 360.16 739.08 372.89 755.73 C 372.84 745.91 374.45 736.10 378.12 726.97 C 383.83 740.22 390.93 753.59 402.74 762.40 C 401.50 755.53 402.16 748.32 405.51 742.11 C 405.93 752.90 408.44 763.55 412.77 773.45 C 401.34 776.05 388.95 773.63 378.58 768.42 C 359.08 755.13 353.34 730.08 351.98 707.92 C 347.81 716.60 347.30 726.47 348.02 735.94 C 339.37 730.61 334.75 721.16 332.42 711.60 C 328.15 694.83 321.74 678.20 310.16 665.03 Z" />
</g>
</svg>
