<?xml version="1.0" encoding="UTF-8" ?>
<!DOCTYPE svg PUBLIC "-//W3C//DTD SVG 1.1//EN" "http://www.w3.org/Graphics/SVG/1.1/DTD/svg11.dtd">
<svg width="931pt" height="311pt" viewBox="0 0 931 311" version="1.1" xmlns="http://www.w3.org/2000/svg">
<g id="#000000ff">
</g>
<g id="#ffffffff">
<path fill="#ffffff" opacity="1.00" d=" M 412.29 82.42 C 424.83 81.75 437.80 81.19 449.89 85.20 C 456.53 87.38 462.96 91.80 465.41 98.60 C 467.49 104.82 467.59 111.50 467.64 117.99 C 467.64 166.33 467.64 214.66 467.64 263.00 C 467.64 269.34 467.55 275.78 465.88 281.94 C 464.15 288.39 458.75 293.23 452.72 295.70 C 441.46 300.46 428.96 300.19 416.98 299.88 C 408.58 299.39 399.63 298.37 392.53 293.46 C 384.67 287.66 382.38 277.26 382.28 268.01 C 382.24 217.00 382.26 165.99 382.27 114.98 C 382.30 106.74 383.73 97.80 389.38 91.42 C 395.11 84.96 404.15 83.42 412.29 82.42 M 420.38 108.50 C 416.88 108.48 414.48 111.65 414.78 115.00 C 414.69 165.33 414.76 215.66 414.75 265.99 C 414.68 268.61 415.22 272.10 418.15 272.98 C 422.61 274.20 427.47 274.19 431.92 272.90 C 435.15 271.26 434.66 267.06 434.98 264.03 C 435.01 215.34 435.01 166.66 434.98 117.97 C 434.66 114.94 435.15 110.73 431.92 109.10 C 428.20 107.95 424.20 107.93 420.38 108.50 Z" />
<path fill="#ffffff" opacity="1.00" d=" M 67.02 84.00 C 83.09 84.00 99.16 84.00 115.23 84.00 C 120.57 134.15 125.84 184.31 131.37 234.43 C 135.51 184.30 139.30 134.14 143.28 84.00 C 159.23 84.00 175.19 84.00 191.14 84.00 C 191.14 156.00 191.14 228.00 191.14 300.00 C 181.76 300.00 172.38 300.00 163.00 300.00 C 163.00 244.66 162.99 189.33 163.00 134.00 C 162.99 131.28 163.14 128.55 162.78 125.85 C 161.90 127.81 161.90 129.98 161.68 132.08 C 155.54 188.05 149.30 244.02 143.18 299.99 C 133.88 300.01 124.58 299.99 115.28 300.00 C 108.57 242.64 102.46 185.20 95.52 127.87 C 95.88 132.24 95.79 136.62 95.79 141.00 C 95.79 194.00 95.79 247.00 95.79 300.00 C 86.20 300.00 76.61 300.00 67.02 300.00 C 67.02 228.00 67.02 156.00 67.02 84.00 Z" />
<path fill="#ffffff" opacity="1.00" d=" M 211.21 84.00 C 222.10 84.00 232.99 84.00 243.88 84.00 C 243.88 156.00 243.88 228.00 243.88 300.00 C 232.99 300.00 222.10 300.00 211.21 300.00 C 211.21 228.00 211.21 156.00 211.21 84.00 Z" />
<path fill="#ffffff" opacity="1.00" d=" M 264.02 84.00 C 279.20 84.00 294.38 84.00 309.55 84.00 C 318.64 138.37 327.39 192.82 336.78 247.12 C 337.15 243.76 337.00 240.38 337.03 237.00 C 337.02 186.00 337.03 135.00 337.02 84.00 C 345.88 84.00 354.74 83.99 363.59 84.01 C 363.58 156.00 363.58 228.00 363.59 299.99 C 348.91 299.98 334.22 300.06 319.54 299.95 C 309.99 242.82 300.31 185.70 290.53 128.61 C 290.67 185.74 290.55 242.87 290.59 300.00 C 281.73 300.00 272.88 300.00 264.02 300.00 C 264.02 228.00 264.02 156.00 264.02 84.00 Z" />
<path fill="#ffffff" opacity="1.00" d=" M 479.31 84.00 C 506.53 84.00 533.75 84.00 560.98 84.00 C 560.97 93.38 560.98 102.76 560.98 112.14 C 552.80 112.13 544.62 112.16 536.44 112.13 C 536.51 174.75 536.45 237.37 536.47 300.00 C 525.65 300.00 514.84 300.00 504.02 300.00 C 504.02 237.38 504.03 174.76 504.01 112.14 C 495.78 112.14 487.54 112.15 479.30 112.14 C 479.31 102.76 479.31 93.38 479.31 84.00 Z" />
<path fill="#ffffff" opacity="1.00" d=" M 582.44 84.01 C 598.57 83.99 614.70 84.01 630.83 84.00 C 639.22 155.98 647.20 228.01 655.57 299.99 C 644.52 299.99 633.47 300.02 622.43 299.98 C 621.05 281.69 619.18 263.45 617.82 245.16 C 609.40 245.13 600.98 245.12 592.57 245.16 C 590.61 263.43 588.95 281.74 586.90 300.00 C 577.25 300.00 567.60 300.00 557.95 300.00 C 565.91 227.98 574.39 156.02 582.44 84.01 M 605.72 117.65 C 602.02 150.72 599.06 183.89 595.65 216.99 C 602.10 217.01 608.55 217.00 615.01 217.00 C 611.99 185.29 609.35 153.54 606.45 121.82 C 606.31 120.41 606.07 119.02 605.72 117.65 Z" />
<path fill="#ffffff" opacity="1.00" d=" M 669.36 84.01 C 680.18 83.99 691.01 84.00 701.84 84.00 C 701.84 143.99 701.82 203.98 701.84 263.97 C 702.01 267.05 702.09 271.19 705.37 272.68 C 709.05 274.29 713.74 274.46 717.18 272.16 C 720.59 269.58 720.83 264.92 720.86 261.01 C 720.85 202.00 720.86 143.00 720.86 84.00 C 731.68 84.00 742.50 84.00 753.33 84.00 C 753.32 145.66 753.35 207.33 753.31 268.99 C 752.88 276.81 752.77 285.87 746.68 291.68 C 739.72 298.57 729.31 299.54 720.02 299.88 C 707.97 300.13 695.41 300.61 684.04 295.91 C 678.49 293.66 673.42 289.46 671.54 283.62 C 670.03 278.57 669.38 273.27 669.36 268.00 C 669.36 206.67 669.37 145.34 669.36 84.01 Z" />
<path fill="#ffffff" opacity="1.00" d=" M 773.46 84.01 C 786.64 83.99 799.82 84.00 813.00 84.00 C 821.48 84.01 830.04 84.51 838.28 86.67 C 842.97 88.00 847.90 89.94 850.90 94.00 C 853.85 98.12 855.20 103.13 856.17 108.04 C 858.49 120.22 857.81 132.67 857.92 145.00 C 857.82 159.56 858.51 174.30 855.52 188.65 C 854.51 193.15 853.24 197.76 850.50 201.54 C 847.57 205.43 842.75 207.16 838.21 208.33 C 846.20 238.91 854.39 269.44 862.47 300.00 C 851.16 299.99 839.85 300.03 828.55 299.98 C 820.96 269.25 813.16 238.57 805.60 207.83 C 805.92 238.55 805.65 269.28 805.74 300.00 C 794.98 299.99 784.22 300.01 773.46 299.99 C 773.48 228.00 773.47 156.00 773.46 84.01 M 805.73 110.14 C 805.75 134.53 805.75 158.92 805.73 183.31 C 810.46 183.17 815.24 183.63 819.95 183.04 C 823.33 182.04 823.47 177.87 824.14 175.00 C 825.84 160.07 824.80 145.01 825.06 130.02 C 824.63 123.68 825.43 116.54 821.93 110.94 C 816.73 109.31 811.09 110.50 805.73 110.14 Z" />
</g>
</svg>
