<?xml version="1.0" encoding="UTF-8" standalone="no"?>
<svg
   width="100%"
   height="100%"
   viewBox="0 0 700 700"
   version="1.1"
   id="svg1002"
   sodipodi:docname="rec_press.svg"
   inkscape:version="1.1 (c68e22c387, 2021-05-23)"
   xmlns:inkscape="http://www.inkscape.org/namespaces/inkscape"
   xmlns:sodipodi="http://sodipodi.sourceforge.net/DTD/sodipodi-0.dtd"
   xmlns="http://www.w3.org/2000/svg"
   xmlns:svg="http://www.w3.org/2000/svg">
  <defs
     id="defs1006">
    <rect
       x="263.04619"
       y="304.11985"
       width="156.42946"
       height="103.1211"
       id="rect29251" />
    <rect
       x="241.1985"
       y="263.9201"
       width="224.59426"
       height="174.78152"
       id="rect19259" />
    <rect
       x="253.43321"
       y="292.75905"
       width="194.8814"
       height="138.95131"
       id="rect3459" />
  </defs>
  <sodipodi:namedview
     id="namedview1004"
     pagecolor="#ffffff"
     bordercolor="#666666"
     borderopacity="1.0"
     inkscape:pageshadow="2"
     inkscape:pageopacity="0.0"
     inkscape:pagecheckerboard="0"
     showgrid="false"
     inkscape:zoom="0.80913219"
     inkscape:cx="436.88782"
     inkscape:cy="341.72414"
     inkscape:window-width="1920"
     inkscape:window-height="1009"
     inkscape:window-x="1912"
     inkscape:window-y="-8"
     inkscape:window-maximized="1"
     inkscape:current-layer="svg1002" />
  <g
     id="rec_off" />
  <g
     id="#000000ff"
     style="fill:#ff0000"
     transform="matrix(1.4506314,0,0,1.4506314,-157.72044,-157.7199)">
    <path
       fill="#969696"
       opacity="1"
       d="m 337.31,169.44 c -42.86,2.88 -84.41,21.72 -114.81,52.07 -27.21,26.88 -45.47,62.63 -51.32,100.43 -6.22,39.1 0.91,80.18 20,114.87 18.8,34.67 49.34,62.76 85.44,78.65 31.59,14.08 67.27,18.77 101.43,13.36 33.58,-5.23 65.62,-20.15 91.13,-42.62 36.37,-31.47 59.08,-78.1 61.53,-126.13 2.16,-36.89 -7.44,-74.34 -27.01,-105.67 -15.97,-25.77 -38.55,-47.37 -65,-62.17 -30.6,-17.31 -66.33,-25.3 -101.39,-22.79 z"
       id="path997"
       style="fill:#ff0000"
       sodipodi:nodetypes="ccccccccccc" />
  </g>
  <g
     aria-label="REC"
     transform="matrix(4.1836,0,0,4.1836,-1078.0416,-1002.5412)"
     id="text29249"
     style="font-weight:600;font-size:40px;line-height:1.25;font-family:a_FuturicaLt;-inkscape-font-specification:'a_FuturicaLt Semi-Bold';text-align:center;white-space:pre;shape-inside:url(#rect29251);fill:#ffffff">
    <path
       d="m 329.91406,339.68937 h -6.99219 l -7.85156,-11.79688 -1.1914,-0.11719 v 11.91407 h -5.64454 v -30.15625 h 8.47657 q 5.03906,0 7.83203,2.34375 2.8125,2.32422 2.8125,6.62109 0,3.10547 -1.73828,5.39063 -1.89453,2.48046 -5.17578,3.04687 z m -8.24219,-20.95703 q 0,-4.64844 -6.48437,-4.64844 h -1.30859 v 9.375 h 1.48437 q 6.30859,0 6.30859,-4.72656 z"
       id="path828" />
    <path
       d="m 348.76172,314.45499 h -11.03516 v 6.875 h 10.60547 v 4.92188 h -10.60547 v 8.51562 h 10.9961 v 4.92188 h -16.64063 v -30.15625 h 16.67969 z"
       id="path830" />
    <path
       d="m 374.91406,338.61515 q -3.80859,1.79687 -7.34375,1.79687 -7.1289,0 -11.62109,-4.41406 -4.47266,-4.43359 -4.47266,-11.38672 0,-6.83594 4.7461,-11.36719 4.6289,-4.43359 11.38671,-4.43359 4.04297,0 7.26563,1.79688 v 6.71875 q -2.92969,-3.16407 -7.48047,-3.16407 -4.31641,0 -7.16797,2.85157 -2.94922,2.94921 -2.94922,7.59765 0,4.7461 2.92969,7.63672 2.8125,2.79297 7.1875,2.79297 4.31641,0 7.51953,-3.14453 z"
       id="path832" />
  </g>
</svg>
