<?xml version="1.0" encoding="UTF-8" ?>
<!DOCTYPE svg PUBLIC "-//W3C//DTD SVG 1.1//EN" "http://www.w3.org/Graphics/SVG/1.1/DTD/svg11.dtd">
<svg width="100%" height="100%" viewBox="0 0 700 700" version="1.1" xmlns="http://www.w3.org/2000/svg">
<g id="rec_off">
</g>
<g id="#000000ff">
<path fill="#969696" opacity="1.00" d=" M 334.34 106.49 C 371.96 104.06 410.12 110.49 444.84 125.18 C 495.94 146.58 539.20 186.00 565.17 234.94 C 597.49 294.66 602.94 368.06 579.85 431.91 C 560.21 487.59 519.51 535.46 467.67 563.75 C 433.89 582.41 395.60 592.84 357.02 593.89 C 322.22 594.94 287.22 588.37 255.16 574.82 C 204.30 553.52 161.19 514.36 135.20 465.73 C 103.07 406.81 97.13 334.44 119.12 271.05 C 131.26 235.52 151.70 202.81 178.48 176.48 C 219.73 135.36 276.22 110.07 334.34 106.49 M 337.31 169.44 C 294.45 172.32 252.90 191.16 222.50 221.51 C 195.29 248.39 177.03 284.14 171.18 321.94 C 164.96 361.04 172.09 402.12 191.18 436.81 C 209.98 471.48 240.52 499.57 276.62 515.46 C 308.21 529.54 343.89 534.23 378.05 528.82 C 411.63 523.59 443.67 508.67 469.18 486.20 C 505.55 454.73 528.26 408.10 530.71 360.07 C 532.87 323.18 523.27 285.73 503.70 254.40 C 487.73 228.63 465.15 207.03 438.70 192.23 C 408.10 174.92 372.37 166.93 337.31 169.44 Z" />
<path fill="#969696" opacity="1.00" d=" M 339.43 233.72 C 370.06 231.00 401.66 240.91 425.11 260.85 C 456.11 286.54 472.13 329.25 465.04 368.95 C 461.63 389.78 452.43 409.64 438.69 425.67 C 412.53 456.80 369.12 472.59 329.13 464.70 C 302.00 459.85 276.77 444.96 259.49 423.48 C 238.15 397.31 228.71 361.50 235.45 328.32 C 240.99 298.41 258.82 271.01 283.98 253.91 C 300.34 242.52 319.68 235.88 339.43 233.72 Z" />
</g>
</svg>
