<?xml version="1.0" encoding="UTF-8" standalone="no"?>
<svg
   width="100%"
   height="100%"
   viewBox="0 0 700 700"
   version="1.1"
   id="svg1002"
   sodipodi:docname="rec_main.svg"
   inkscape:version="1.1 (c68e22c387, 2021-05-23)"
   xmlns:inkscape="http://www.inkscape.org/namespaces/inkscape"
   xmlns:sodipodi="http://sodipodi.sourceforge.net/DTD/sodipodi-0.dtd"
   xmlns="http://www.w3.org/2000/svg"
   xmlns:svg="http://www.w3.org/2000/svg">
  <defs
     id="defs1006">
    <rect
       x="263.04619"
       y="304.11985"
       width="156.42946"
       height="103.1211"
       id="rect29251" />
    <rect
       x="241.1985"
       y="263.9201"
       width="224.59426"
       height="174.78152"
       id="rect19259" />
    <rect
       x="253.43321"
       y="292.75905"
       width="194.8814"
       height="138.95131"
       id="rect3459" />
  </defs>
  <sodipodi:namedview
     id="namedview1004"
     pagecolor="#ffffff"
     bordercolor="#666666"
     borderopacity="1.0"
     inkscape:pageshadow="2"
     inkscape:pageopacity="0.0"
     inkscape:pagecheckerboard="0"
     showgrid="false"
     inkscape:zoom="0.80913219"
     inkscape:cx="436.88782"
     inkscape:cy="341.72414"
     inkscape:window-width="1920"
     inkscape:window-height="1009"
     inkscape:window-x="1912"
     inkscape:window-y="-8"
     inkscape:window-maximized="1"
     inkscape:current-layer="svg1002" />
  <g
     id="rec_off" />
  <g
     id="#000000ff"
     style="fill:#aa0000"
     transform="matrix(1.4506314,0,0,1.4506314,-157.72044,-157.7199)">
    <path
       fill="#969696"
       opacity="1"
       d="m 337.31,169.44 c -42.86,2.88 -84.41,21.72 -114.81,52.07 -27.21,26.88 -45.47,62.63 -51.32,100.43 -6.22,39.1 0.91,80.18 20,114.87 18.8,34.67 49.34,62.76 85.44,78.65 31.59,14.08 67.27,18.77 101.43,13.36 33.58,-5.23 65.62,-20.15 91.13,-42.62 36.37,-31.47 59.08,-78.1 61.53,-126.13 2.16,-36.89 -7.44,-74.34 -27.01,-105.67 -15.97,-25.77 -38.55,-47.37 -65,-62.17 -30.6,-17.31 -66.33,-25.3 -101.39,-22.79 z"
       id="path997"
       style="fill:#aa0000"
       sodipodi:nodetypes="ccccccccccc" />
  </g>
  <text
     xml:space="preserve"
     id="text29249"
     style="font-style:normal;font-variant:normal;font-weight:600;font-stretch:normal;font-size:40px;line-height:1.25;font-family:a_FuturicaLt;-inkscape-font-specification:'a_FuturicaLt Semi-Bold';text-align:center;white-space:pre;shape-inside:url(#rect29251);fill:#ffffff"
     transform="matrix(4.1836,0,0,4.1836,-1078.0416,-1000.5412)"
     x="32.988281"
     y="0"><tspan
       x="305.67578"
       y="339.68937"
       id="tspan40118">REC</tspan></text>
</svg>
