<?xml version="1.0" encoding="UTF-8" ?>
<!DOCTYPE svg PUBLIC "-//W3C//DTD SVG 1.1//EN" "http://www.w3.org/Graphics/SVG/1.1/DTD/svg11.dtd">
<svg width="90" height="90" viewBox="0 0 760 760" version="1.1" xmlns="http://www.w3.org/2000/svg">
<g id="#000000ff">
</g>
<g id="#ffffffff">
<path fill="#ffffff" opacity="1.00" d=" M 218.02 77.14 C 238.46 75.01 260.14 62.28 261.21 39.62 C 262.88 61.97 252.60 87.46 229.62 94.54 C 193.60 105.36 153.50 106.88 121.55 128.60 C 89.74 152.70 84.63 195.82 82.27 232.83 C 78.10 200.32 78.02 167.12 82.53 134.66 C 83.59 121.58 94.60 113.24 105.96 108.91 C 141.91 94.07 179.38 82.32 218.02 77.14 Z" />
<path fill="#ffffff" opacity="1.00" d=" M 498.41 41.20 C 499.57 53.82 506.99 66.10 519.05 70.94 C 537.73 79.83 558.96 79.14 578.62 84.52 C 606.25 91.78 633.89 99.92 659.73 112.25 C 677.46 119.73 678.65 141.43 678.74 157.99 C 680.49 182.70 680.06 207.56 676.82 232.13 C 675.56 193.92 668.70 148.63 634.39 125.65 C 602.69 106.37 564.77 104.42 530.01 94.00 C 507.67 87.46 496.93 62.99 498.41 41.20 Z" />
<path fill="#ffffff" opacity="1.00" d=" M 298.36 136.67 C 298.32 130.02 298.34 123.38 298.35 116.73 C 310.14 116.87 321.97 116.49 333.74 116.91 C 376.70 147.06 419.30 177.77 462.12 208.13 C 462.13 214.17 462.13 220.22 462.12 226.27 C 449.63 226.31 437.15 226.23 424.67 226.31 C 382.54 196.46 340.47 166.53 298.36 136.67 Z" />
<path fill="#ffffff" opacity="1.00" d=" M 653.05 347.11 C 699.81 333.98 729.00 286.29 732.09 239.65 C 740.75 273.72 727.62 311.41 701.26 334.27 C 675.07 357.67 640.50 368.05 606.94 375.65 C 573.82 382.63 540.75 392.34 506.60 391.89 C 509.92 396.80 513.48 401.55 516.56 406.61 C 544.96 406.14 573.35 408.84 601.35 413.51 C 614.43 415.95 628.01 418.57 639.14 426.34 C 629.26 428.13 619.56 430.80 610.23 434.49 C 629.01 448.71 648.82 463.37 660.20 484.56 C 656.53 485.95 652.73 487.18 649.45 489.40 C 623.00 508.58 582.77 505.50 559.72 482.29 C 547.99 471.65 535.65 461.74 523.82 451.22 C 532.58 471.07 551.30 484.25 560.33 504.05 C 550.79 497.39 539.81 492.57 528.22 491.05 C 548.86 504.79 560.78 532.09 553.41 556.30 C 547.13 542.17 533.42 532.67 518.94 528.35 C 524.54 547.41 527.88 569.98 518.56 588.28 C 498.93 584.42 480.68 600.73 475.91 618.94 C 467.80 636.83 469.08 658.67 456.89 674.48 C 456.76 663.81 454.88 652.34 447.31 644.27 C 447.93 666.22 443.94 690.77 426.79 706.17 C 427.07 696.99 427.22 687.60 424.51 678.72 C 418.32 691.93 409.64 705.05 396.12 711.60 C 399.70 699.76 400.02 686.57 394.86 675.13 C 405.73 671.21 413.65 662.29 420.18 653.14 C 436.56 645.14 447.34 627.24 446.68 609.01 C 447.03 598.28 457.58 592.83 464.28 586.04 C 455.31 574.77 441.96 566.20 427.78 563.80 C 410.42 572.47 391.17 579.52 371.44 577.38 C 356.99 575.29 343.07 570.29 330.12 563.67 C 315.80 566.51 303.16 575.39 293.55 586.18 C 301.48 572.09 314.04 560.04 329.74 555.27 C 345.00 563.11 361.71 568.28 378.79 570.01 C 378.69 565.96 379.37 561.80 378.29 557.84 C 361.91 528.69 350.63 494.68 356.04 460.95 C 360.42 447.09 367.12 433.66 369.67 419.34 C 358.21 403.73 342.25 390.11 322.94 385.85 C 332.76 366.81 362.03 374.69 371.24 355.26 C 377.62 343.95 381.86 331.09 380.87 317.97 C 380.35 305.28 390.45 293.70 403.04 292.23 C 427.67 287.53 453.39 290.32 477.11 298.07 C 474.46 300.58 472.10 303.36 469.94 306.29 C 495.44 314.97 527.77 314.18 545.70 337.26 C 537.00 336.93 528.35 338.71 520.31 341.97 C 525.49 343.67 530.36 346.21 534.77 349.41 C 565.15 341.79 596.93 339.73 626.37 328.47 C 625.94 341.67 640.67 352.50 653.05 347.11 M 353.46 384.12 C 358.18 387.98 361.75 392.96 365.45 397.75 C 388.49 395.55 409.51 383.58 424.12 365.83 C 403.25 378.86 378.38 388.18 353.46 384.12 M 388.50 419.74 C 392.38 432.95 396.48 446.18 402.19 458.73 C 409.89 461.83 418.01 463.98 426.01 466.22 C 431.36 465.27 436.61 463.88 441.87 462.53 C 438.85 486.20 434.87 509.90 427.06 532.52 C 441.28 514.18 451.28 493.10 463.48 473.48 C 471.46 469.66 481.42 473.82 489.32 469.21 C 493.97 460.78 494.67 450.88 496.86 441.64 C 482.57 434.19 487.51 410.65 503.67 409.71 C 496.07 401.78 485.04 396.97 473.99 397.77 C 451.68 399.70 432.60 412.95 416.24 427.28 C 409.82 411.48 420.83 395.28 433.34 386.28 C 414.76 391.24 399.70 404.56 388.50 419.74 M 418.12 473.62 C 412.77 499.56 400.31 523.20 388.25 546.52 C 400.79 536.18 408.45 521.55 415.92 507.44 C 417.80 515.60 419.07 523.89 419.39 532.27 C 425.83 513.61 426.77 491.69 418.12 473.62 Z" />
<path fill="#ffffff" opacity="1.00" d=" M 50.05 326.97 C 28.42 304.31 19.53 270.90 26.08 240.36 C 29.69 288.01 60.25 336.24 108.39 348.51 C 119.55 349.30 129.93 339.21 129.49 328.02 C 159.75 339.96 192.52 342.28 223.99 349.46 C 228.29 346.12 233.22 343.73 238.33 341.91 C 230.42 338.32 221.70 336.65 213.02 337.23 C 217.10 329.82 223.79 324.38 230.81 319.90 C 211.17 314.51 191.38 309.15 170.96 307.83 C 143.37 304.78 110.63 302.43 92.66 278.16 C 123.77 294.89 159.90 294.80 193.97 299.97 C 212.27 303.22 230.17 308.35 248.23 312.63 C 261.39 309.92 274.68 307.59 288.11 306.49 C 285.29 302.15 281.43 298.69 277.90 294.96 C 298.85 292.04 320.03 293.81 341.01 295.45 C 329.35 308.62 319.33 323.38 305.78 334.77 C 289.84 347.93 267.38 357.79 263.50 380.46 C 294.58 382.72 322.93 401.93 341.43 426.32 C 326.63 413.40 309.57 402.01 289.98 398.20 C 277.43 395.84 264.03 400.18 255.06 409.23 C 272.08 410.41 276.24 435.22 260.75 442.11 C 259.63 447.42 259.65 452.87 258.68 458.19 C 255.94 453.18 253.93 447.84 251.44 442.71 C 262.27 434.48 257.22 415.04 243.83 412.94 C 243.27 405.38 243.10 397.61 245.61 390.35 C 238.13 397.10 230.86 404.10 222.96 410.38 C 226.02 403.52 230.47 397.43 234.94 391.46 C 212.54 389.37 190.59 384.27 168.65 379.46 C 126.39 370.34 80.71 359.88 50.05 326.97 Z" />
<path fill="#ffffff" opacity="1.00" d=" M 565.96 299.61 C 599.32 294.75 634.49 294.34 665.08 278.43 C 644.02 305.56 606.31 306.32 574.98 307.46 C 555.46 308.10 536.05 310.76 516.53 311.22 C 532.85 306.77 549.36 302.91 565.96 299.61 Z" />
<path fill="#ffffff" opacity="1.00" d=" M 79.99 436.50 C 109.28 410.47 150.75 404.92 188.29 401.18 C 164.60 407.11 140.04 412.65 119.37 426.30 C 129.24 427.96 138.79 431.02 148.25 434.22 C 129.60 448.70 109.95 463.31 98.14 484.30 C 111.71 487.87 120.46 499.79 133.33 504.65 C 147.35 510.80 162.67 514.26 178.02 513.77 C 182.44 485.24 208.40 469.35 229.20 452.99 C 221.32 471.28 206.13 485.32 198.39 503.83 C 207.83 497.31 218.65 492.68 230.05 491.06 C 209.72 504.99 197.64 531.78 204.74 556.01 C 211.09 542.41 224.01 532.16 238.66 528.93 C 232.27 547.91 229.84 571.02 239.76 589.21 C 249.69 592.29 262.05 588.28 271.77 594.23 C 280.75 600.76 286.22 610.92 290.27 621.02 C 283.00 613.53 275.92 604.91 265.76 601.36 C 252.70 598.26 239.28 600.99 226.09 601.38 C 221.98 598.73 218.18 595.62 214.95 591.96 C 213.07 594.34 211.21 596.73 209.22 599.02 C 195.49 580.44 183.60 558.03 186.61 534.17 C 181.60 540.08 176.59 546.01 171.21 551.60 C 172.22 539.43 174.22 527.31 177.57 515.56 C 154.05 524.17 125.06 524.23 104.38 508.67 C 95.25 502.65 84.78 499.33 74.40 496.23 C 79.52 474.32 93.77 455.71 110.74 441.44 C 100.49 439.77 90.18 438.45 79.99 436.50 Z" />
<path fill="#ffffff" opacity="1.00" d=" M 276.64 428.29 C 291.50 434.98 302.18 448.90 313.98 459.95 C 305.14 462.27 294.51 462.19 287.57 455.43 C 280.79 448.00 279.07 437.70 276.64 428.29 Z" />
<path fill="#ffffff" opacity="1.00" d=" M 445.80 459.53 C 457.76 449.02 467.96 436.22 482.08 428.39 C 480.05 437.36 478.08 446.87 472.24 454.25 C 465.72 461.57 454.67 462.03 445.80 459.53 Z" />
<path fill="#ffffff" opacity="1.00" d=" M 331.43 532.64 C 323.39 510.03 319.72 486.21 316.31 462.55 C 325.02 465.17 334.15 467.82 342.76 463.33 C 338.30 488.09 335.08 513.78 340.47 538.66 C 325.06 535.68 312.16 525.36 302.84 513.11 C 292.78 499.38 280.03 487.26 273.60 471.18 C 280.69 472.12 288.57 470.32 295.10 473.71 C 307.15 493.37 317.27 514.32 331.43 532.64 Z" />
<path fill="#ffffff" opacity="1.00" d=" M 324.35 604.44 C 330.18 601.41 337.44 607.77 336.34 613.94 C 334.71 625.39 344.07 634.81 353.74 639.17 C 374.86 649.14 405.28 646.72 419.46 626.42 C 424.04 620.88 420.22 613.28 423.66 607.62 C 426.40 603.63 433.39 601.83 436.35 606.53 C 441.74 620.07 435.29 635.61 424.79 644.79 C 400.09 666.07 359.57 666.27 334.48 645.52 C 323.21 636.41 314.34 616.81 324.35 604.44 Z" />
<path fill="#ffffff" opacity="1.00" d=" M 267.63 610.94 C 285.79 624.87 290.23 647.97 299.10 667.61 C 300.51 658.58 302.81 649.20 309.03 642.18 C 311.09 662.18 316.24 682.57 328.39 698.96 C 328.68 689.65 329.45 679.86 333.75 671.46 C 339.17 684.17 346.11 696.87 357.32 705.39 C 356.02 698.70 356.92 691.61 360.07 685.54 C 360.44 696.10 362.96 706.51 367.11 716.21 C 352.22 719.06 334.70 715.40 324.85 703.11 C 312.95 689.21 309.41 670.38 308.13 652.64 C 304.26 661.22 303.79 670.77 304.36 680.04 C 296.39 674.70 291.54 665.89 289.37 656.72 C 285.31 640.21 278.81 623.95 267.63 610.94 Z" />
</g>
<g id="#fd0d17ff">
<path fill="#fd0d17" opacity="1.00" d=" M 285.53 104.51 C 348.69 104.51 411.84 104.51 474.99 104.51 C 474.99 149.33 475.01 194.14 474.97 238.95 C 411.83 238.93 348.69 238.94 285.54 238.95 C 285.52 194.14 285.55 149.32 285.53 104.51 M 298.36 136.67 C 340.47 166.53 382.54 196.46 424.67 226.31 C 437.15 226.23 449.63 226.31 462.12 226.27 C 462.13 220.22 462.13 214.17 462.12 208.13 C 419.30 177.77 376.70 147.06 333.74 116.91 C 321.97 116.49 310.14 116.87 298.35 116.73 C 298.34 123.38 298.32 130.02 298.36 136.67 Z" />
</g>
</svg>
