<?xml version="1.0" encoding="UTF-8" standalone="no"?>
<svg
   width="30"
   height="120"
   viewBox="0 0 7.9375 31.750001"
   version="1.1"
   id="svg8"
   sodipodi:docname="PaintPolygon.svg"
   inkscape:version="1.1 (c68e22c387, 2021-05-23)"
   xmlns:inkscape="http://www.inkscape.org/namespaces/inkscape"
   xmlns:sodipodi="http://sodipodi.sourceforge.net/DTD/sodipodi-0.dtd"
   xmlns="http://www.w3.org/2000/svg"
   xmlns:svg="http://www.w3.org/2000/svg"
   xmlns:rdf="http://www.w3.org/1999/02/22-rdf-syntax-ns#"
   xmlns:cc="http://creativecommons.org/ns#"
   xmlns:dc="http://purl.org/dc/elements/1.1/">
  <defs
     id="defs2">
    <marker
       inkscape:stockid="Arrow1Sstart"
       orient="auto"
       refY="0"
       refX="0"
       id="Arrow1Sstart"
       style="overflow:visible"
       inkscape:isstock="true">
      <path
         id="path973"
         d="M 0,0 5,-5 -12.5,0 5,5 Z"
         style="fill:#000000;fill-opacity:1;fill-rule:evenodd;stroke:#000000;stroke-width:1.00000003pt;stroke-opacity:1"
         transform="matrix(0.2,0,0,0.2,1.2,0)"
         inkscape:connector-curvature="0" />
    </marker>
    <marker
       inkscape:stockid="Arrow1Mend"
       orient="auto"
       refY="0"
       refX="0"
       id="marker1523"
       style="overflow:visible"
       inkscape:isstock="true">
      <path
         id="path1521"
         d="M 0,0 5,-5 -12.5,0 5,5 Z"
         style="fill:#000000;fill-opacity:1;fill-rule:evenodd;stroke:#000000;stroke-width:1.00000003pt;stroke-opacity:1"
         transform="matrix(-0.4,0,0,-0.4,-4,0)"
         inkscape:connector-curvature="0" />
    </marker>
    <marker
       inkscape:stockid="Arrow2Lend"
       orient="auto"
       refY="0"
       refX="0"
       id="Arrow2Lend"
       style="overflow:visible"
       inkscape:isstock="true">
      <path
         id="path982"
         style="fill:#000000;fill-opacity:1;fill-rule:evenodd;stroke:#000000;stroke-width:0.625;stroke-linejoin:round;stroke-opacity:1"
         d="M 8.7185878,4.0337352 -2.2072895,0.01601326 8.7185884,-4.0017078 c -1.7454984,2.3720609 -1.7354408,5.6174519 -6e-7,8.035443 z"
         transform="matrix(-1.1,0,0,-1.1,-1.1,0)"
         inkscape:connector-curvature="0" />
    </marker>
    <marker
       inkscape:stockid="Arrow1Lend"
       orient="auto"
       refY="0"
       refX="0"
       id="Arrow1Lend"
       style="overflow:visible"
       inkscape:isstock="true">
      <path
         id="path964"
         d="M 0,0 5,-5 -12.5,0 5,5 Z"
         style="fill:#000000;fill-opacity:1;fill-rule:evenodd;stroke:#000000;stroke-width:1.00000003pt;stroke-opacity:1"
         transform="matrix(-0.8,0,0,-0.8,-10,0)"
         inkscape:connector-curvature="0" />
    </marker>
    <marker
       inkscape:stockid="Arrow1Lstart"
       orient="auto"
       refY="0"
       refX="0"
       id="marker1295"
       style="overflow:visible"
       inkscape:isstock="true">
      <path
         id="path1293"
         d="M 0,0 5,-5 -12.5,0 5,5 Z"
         style="fill:#000000;fill-opacity:1;fill-rule:evenodd;stroke:#000000;stroke-width:1.00000003pt;stroke-opacity:1"
         transform="matrix(0.8,0,0,0.8,10,0)"
         inkscape:connector-curvature="0" />
    </marker>
    <marker
       inkscape:stockid="Arrow1Mend"
       orient="auto"
       refY="0"
       refX="0"
       id="Arrow1Mend"
       style="overflow:visible"
       inkscape:isstock="true">
      <path
         id="path970"
         d="M 0,0 5,-5 -12.5,0 5,5 Z"
         style="fill:#000000;fill-opacity:1;fill-rule:evenodd;stroke:#000000;stroke-width:1.00000003pt;stroke-opacity:1"
         transform="matrix(-0.4,0,0,-0.4,-4,0)"
         inkscape:connector-curvature="0" />
    </marker>
    <marker
       inkscape:stockid="Arrow2Send"
       orient="auto"
       refY="0"
       refX="0"
       id="Arrow2Send"
       style="overflow:visible"
       inkscape:isstock="true">
      <path
         id="path994"
         style="fill:#000000;fill-opacity:1;fill-rule:evenodd;stroke:#000000;stroke-width:0.625;stroke-linejoin:round;stroke-opacity:1"
         d="M 8.7185878,4.0337352 -2.2072895,0.01601326 8.7185884,-4.0017078 c -1.7454984,2.3720609 -1.7354408,5.6174519 -6e-7,8.035443 z"
         transform="matrix(-0.3,0,0,-0.3,0.69,0)"
         inkscape:connector-curvature="0" />
    </marker>
    <marker
       inkscape:stockid="Arrow2Lstart"
       orient="auto"
       refY="0"
       refX="0"
       id="Arrow2Lstart"
       style="overflow:visible"
       inkscape:isstock="true">
      <path
         id="path979"
         style="fill:#000000;fill-opacity:1;fill-rule:evenodd;stroke:#000000;stroke-width:0.625;stroke-linejoin:round;stroke-opacity:1"
         d="M 8.7185878,4.0337352 -2.2072895,0.01601326 8.7185884,-4.0017078 c -1.7454984,2.3720609 -1.7354408,5.6174519 -6e-7,8.035443 z"
         transform="matrix(1.1,0,0,1.1,1.1,0)"
         inkscape:connector-curvature="0" />
    </marker>
    <marker
       inkscape:stockid="Arrow1Mstart"
       orient="auto"
       refY="0"
       refX="0"
       id="Arrow1Mstart"
       style="overflow:visible"
       inkscape:isstock="true">
      <path
         id="path967"
         d="M 0,0 5,-5 -12.5,0 5,5 Z"
         style="fill:#000000;fill-opacity:1;fill-rule:evenodd;stroke:#000000;stroke-width:1.00000003pt;stroke-opacity:1"
         transform="matrix(0.4,0,0,0.4,4,0)"
         inkscape:connector-curvature="0" />
    </marker>
    <marker
       inkscape:stockid="Arrow1Lstart"
       orient="auto"
       refY="0"
       refX="0"
       id="Arrow1Lstart"
       style="overflow:visible"
       inkscape:isstock="true">
      <path
         id="path961"
         d="M 0,0 5,-5 -12.5,0 5,5 Z"
         style="fill:#000000;fill-opacity:1;fill-rule:evenodd;stroke:#000000;stroke-width:1.00000003pt;stroke-opacity:1"
         transform="matrix(0.8,0,0,0.8,10,0)"
         inkscape:connector-curvature="0" />
    </marker>
  </defs>
  <sodipodi:namedview
     id="base"
     pagecolor="#ffffff"
     bordercolor="#666666"
     borderopacity="1.0"
     inkscape:pageopacity="0"
     inkscape:pageshadow="2"
     inkscape:zoom="52.348036"
     inkscape:cx="15.845867"
     inkscape:cy="79.000098"
     inkscape:document-units="px"
     inkscape:current-layer="layer1"
     showgrid="true"
     units="px"
     showguides="true"
     objecttolerance="20"
     gridtolerance="5"
     inkscape:snap-grids="false"
     fit-margin-top="8"
     fit-margin-left="8"
     fit-margin-right="8"
     fit-margin-bottom="8"
     inkscape:guide-bbox="true"
     guidetolerance="9"
     inkscape:snap-to-guides="true"
     inkscape:window-width="1920"
     inkscape:window-height="1009"
     inkscape:window-x="1912"
     inkscape:window-y="-8"
     inkscape:window-maximized="1"
     inkscape:pagecheckerboard="0">
    <inkscape:grid
       type="xygrid"
       id="grid3713"
       spacingx="2.6458334"
       spacingy="2.6458334"
       snapvisiblegridlinesonly="false"
       empspacing="3"
       originx="0"
       originy="0" />
    <sodipodi:guide
       position="1.3271603,24.286448"
       orientation="1,0"
       id="guide4534"
       inkscape:locked="false" />
    <sodipodi:guide
       position="6.6124153,22.263552"
       orientation="1,0"
       id="guide4538"
       inkscape:locked="false" />
    <sodipodi:guide
       position="-2.0053567,22.48572"
       orientation="0,1"
       id="guide4540"
       inkscape:locked="false" />
    <sodipodi:guide
       position="-1.7363282,17.197917"
       orientation="0,1"
       id="guide4542"
       inkscape:locked="false" />
    <sodipodi:guide
       position="-1.8190105,14.552084"
       orientation="0,1"
       id="guide4544"
       inkscape:locked="false" />
    <sodipodi:guide
       position="-1.2898438,9.2438804"
       orientation="0,1"
       id="guide4546"
       inkscape:locked="false" />
    <sodipodi:guide
       position="-1.4386719,6.6145835"
       orientation="0,1"
       id="guide4548"
       inkscape:locked="false" />
    <sodipodi:guide
       position="-0.99218752,1.2898438"
       orientation="0,1"
       id="guide4550"
       inkscape:locked="false" />
    <sodipodi:guide
       position="-4.3264255,11.903517"
       orientation="0,1"
       id="guide4552"
       inkscape:locked="false" />
    <sodipodi:guide
       position="-12.733073,30.427084"
       orientation="0,1"
       id="guide941"
       inkscape:locked="false" />
    <sodipodi:guide
       position="-17.048455,25.140041"
       orientation="0,1"
       id="guide949"
       inkscape:locked="false" />
    <sodipodi:guide
       position="-5.9634513,28.437479"
       orientation="0,1"
       id="guide958"
       inkscape:locked="false" />
    <sodipodi:guide
       position="-7.1561416,25.841623"
       orientation="0,1"
       id="guide960"
       inkscape:locked="false" />
  </sodipodi:namedview>
  <metadata
     id="metadata5">
    <rdf:RDF>
      <cc:Work
         rdf:about="">
        <dc:format>image/svg+xml</dc:format>
        <dc:type
           rdf:resource="http://purl.org/dc/dcmitype/StillImage" />
        <cc:license
           rdf:resource="https://www.gnu.org/licenses/gpl-3.0.txt" />
      </cc:Work>
    </rdf:RDF>
  </metadata>
  <g
     inkscape:label="Calque 1"
     inkscape:groupmode="layer"
     id="layer1"
     transform="translate(1.5569934,-259.22384)">
    <path
       d="m 4.5976863,278.5186 c 0,-0.12064 -0.047212,-0.23605 -0.1337646,-0.3226 l -1.1409319,-1.14094 c -0.1783525,-0.17835 -0.4668641,-0.17835 -0.6452167,0 l -2.27399537,2.274 c -0.0865536,0.0866 -0.13376449,0.20196 -0.13376449,0.32261 0,0.12066 0.0472116,0.23605 0.13376449,0.3226 l 0.98510427,0.98461 c 0.3175543,-0.0735 0.1558197,-0.10896 0.4733821,-0.11429 0.2083062,-0.003 -0.050027,-0.24806 -0.039535,-0.007 l 0.089177,-3e-5 c 0.1689076,-0.0109 0.3634912,0.20497 0.5376819,0.0164 l 2.0117121,-2.01217 c 0.086554,-0.0866 0.1337645,-0.20196 0.1337645,-0.3226 z m -3.91588845,1.17765 c -0.0157374,-0.0157 -0.0183603,-0.0341 -0.0183603,-0.0446 0,-0.0106 0,-0.0288 0.0183603,-0.0446 l 0.99667655,-0.99668 1.2301079,1.23011 -0.9966758,0.99668 c -0.023606,0.0236 -0.062947,0.0236 -0.089177,0 l -1.14093205,-1.14357 z m 3.50410395,-1.13043 -0.9966765,0.99667 -1.230108,-1.23011 0.9966759,-0.99668 c 0.023607,-0.0236 0.062948,-0.0236 0.089176,0 l 1.1409321,1.14356 c 0.015737,0.0157 0.01836,0.0341 0.01836,0.0446 0,0.0105 0,0.0288 -0.01836,0.0445 z"
       fill="#000000"
       id="path944-9"
       style="fill:#5b5b5b;fill-opacity:1;stroke-width:0.262283"
       sodipodi:nodetypes="cccccsccscccccccscccccccccccccscc" />
    <g
       id="ðŸ”-Product-Icons-4"
       stroke="none"
       stroke-width="1"
       fill="none"
       fill-rule="evenodd"
       style="fill:#5b5b5b;fill-opacity:1"
       transform="matrix(0.22134759,0,0,0.22134759,-0.23203647,268.60348)">
      <g
         id="ic_fluent_drafts_24_regular-3"
         fill="#212121"
         fill-rule="nonzero"
         style="fill:#5b5b5b;fill-opacity:1">
        <path
           d="m 20.877359,2.8252892 0.152971,0.1443807 0.144381,0.1529715 C 22.42601,4.5278633 22.377883,6.6827768 21.03033,8.0303301 L 9.0620037,19.998656 C 8.7851285,20.275532 8.4407911,20.475358 8.0630276,20.578385 L 2.947338,21.973573 C 2.3874639,22.126266 1.8737342,21.612536 2.0264271,21.052662 l 1.3951881,-5.11569 C 3.5246416,15.559209 3.7244684,15.214871 4.0013435,14.937996 L 15.96967,2.9696699 C 17.317223,1.6221166 19.472137,1.5739897 20.877359,2.8252892 Z M 15.000172,6.0605729 5.0620037,15.998656 c -0.092292,0.09229 -0.1589006,0.207071 -0.1932428,0.332992 l -1.0498464,3.849437 3.849437,-1.049846 c 0.1259212,-0.03434 0.2407003,-0.100951 0.332992,-0.193243 L 17.939172,8.9995729 Z M 6.525,10.999573 l -1.5,1.5 L 2.75,12.5 C 2.3357864,12.5 2,12.164214 2,11.75 2,11.335786 2.3357864,11 2.75,11 Z m 4,-4.0000001 -1.5,1.5 L 2.75,8.5 C 2.3357864,8.5 2,8.1642136 2,7.75 2,7.3357864 2.3357864,7 2.75,7 Z m 6.50533,-2.9692428 -0.970158,0.9692428 2.939,2.94 0.970498,-0.969903 c 0.811676,-0.8116763 0.811676,-2.1276635 0,-2.9393398 -0.811676,-0.8116763 -2.127664,-0.8116763 -2.93934,0 z M 14.525,2.9995729 l -1.5,1.5 L 2.75,4.5 C 2.3357864,4.5 2,4.1642136 2,3.75 2,3.3357864 2.3357864,3 2.75,3 Z"
           id="ðŸŽ¨-Color-2"
           style="fill:#5b5b5b;fill-opacity:1" />
      </g>
    </g>
    <path
       d="m 3.6755814,261.90906 -0.1699435,2.54903 c -0.014874,0.22324 -0.022322,0.33487 -0.070532,0.41952 -0.042459,0.0746 -0.1064983,0.13442 -0.183672,0.17183 -0.087656,0.0426 -0.199544,0.0426 -0.4232991,0.0426 H 1.976735 c -0.223755,0 -0.3356322,0 -0.4232946,-0.0426 -0.077178,-0.0374 -0.141213,-0.0973 -0.1836658,-0.17183 -0.048221,-0.0846 -0.055662,-0.19628 -0.070544,-0.41952 l -0.169935,-2.54903 m -0.42438087,0 H 4.0999632 m -0.8487624,0 -0.05742,-0.17229 c -0.055658,-0.16696 -0.083497,-0.25042 -0.1351018,-0.31214 -0.045579,-0.0545 -0.1041005,-0.0967 -0.1702191,-0.12269 -0.074882,-0.0295 -0.1628564,-0.0295 -0.3388473,-0.0295 H 2.2552628 c -0.1759908,0 -0.2639652,0 -0.338845,0.0295 -0.066116,0.0259 -0.1246468,0.0682 -0.1702234,0.12269 -0.051613,0.0618 -0.079438,0.14518 -0.1350912,0.31214 l -0.057428,0.17229 m 1.2731432,0.84876 v 1.48534 m -0.8487621,-1.48534 v 1.48534"
       stroke="#000000"
       stroke-width="0.424381"
       stroke-linecap="round"
       stroke-linejoin="round"
       id="path1323-8"
       style="fill:none;stroke:#5b5b5b;stroke-opacity:1" />
    <path
       d="m 3.287421,288.93272 h 0.043795 c 0.3679184,0 0.5518561,0 0.6923932,-0.0696 0.1236094,-0.0612 0.2240966,-0.15874 0.2870728,-0.27876 0.071605,-0.13648 0.071605,-0.31509 0.071605,-0.67236 v -1.78615 c 0,-0.35725 0,-0.53589 -0.071605,-0.67235 -0.062975,-0.12001 -0.1634626,-0.2176 -0.2870728,-0.27876 -0.1405371,-0.0696 -0.3244739,-0.0696 -0.692393,-0.0696 H 1.4918421 c -0.3679096,0 -0.55186452,0 -0.69238619,0.0696 -0.12360797,0.0612 -0.2241034,0.15875 -0.28708448,0.27877 -0.0716001,0.13646 -0.0716001,0.31509 -0.0716001,0.67235 v 0.0426 m 1.86127087,0.95686 1.2043519,-1.1695 m 0,0 H 2.4115288 m 1.0948655,0 v 1.06318"
       stroke="#000000"
       stroke-width="0.431565"
       stroke-linecap="round"
       stroke-linejoin="round"
       id="path1425-9"
       sodipodi:nodetypes="csccssccssccsccccccc"
       style="fill:none;stroke:#5b5b5b;stroke-opacity:1" />
    <ellipse
       style="fill:none;stroke:#5b5b5b;stroke-width:1.18509;stroke-linejoin:round"
       id="path2877"
       cx="1.2636656"
       cy="288.13037"
       rx="0.4191553"
       ry="0.4070254" />
    <path
       style="fill:#5b5b5b;stroke:none;stroke-width:0.264583px;stroke-linecap:butt;stroke-linejoin:miter;stroke-opacity:1;fill-opacity:1"
       d="m 2.9929008,277.16125 -1.1966729,1.15861 1.4165562,1.42925 1.1797586,-1.22205 z"
       id="path1488" />
    <path
       style="fill:#5b5b5b;fill-opacity:1;stroke:none;stroke-width:0.298369px;stroke-linecap:butt;stroke-linejoin:miter;stroke-opacity:1"
       d="m 1.6019946,280.65919 -0.2131126,0.29969 3.2404901,0.0238 v -0.39424 H 1.4654636 Z"
       id="path1072"
       sodipodi:nodetypes="cccccc" />
  </g>
</svg>
