<?xml version="1.0" encoding="UTF-8" standalone="no"?>
<svg
   width="24px"
   height="24px"
   viewBox="0 0 24 24"
   version="1.1"
   id="svg1"
   sodipodi:docname="gold_marker_01.svg"
   inkscape:version="1.4 (86a8ad7, 2024-10-11)"
   xmlns:inkscape="http://www.inkscape.org/namespaces/inkscape"
   xmlns:sodipodi="http://sodipodi.sourceforge.net/DTD/sodipodi-0.dtd"
   xmlns="http://www.w3.org/2000/svg"
   xmlns:svg="http://www.w3.org/2000/svg"
   xmlns:rdf="http://www.w3.org/1999/02/22-rdf-syntax-ns#"
   xmlns:cc="http://creativecommons.org/ns#"
   xmlns:dc="http://purl.org/dc/elements/1.1/">
  <sodipodi:namedview
     id="namedview1"
     pagecolor="#ffffff"
     bordercolor="#666666"
     borderopacity="1.0"
     inkscape:showpageshadow="2"
     inkscape:pageopacity="0.0"
     inkscape:pagecheckerboard="0"
     inkscape:deskcolor="#d1d1d1"
     inkscape:zoom="21.385704"
     inkscape:cx="13.30328"
     inkscape:cy="13.583841"
     inkscape:window-width="1920"
     inkscape:window-height="1009"
     inkscape:window-x="1912"
     inkscape:window-y="-8"
     inkscape:window-maximized="1"
     inkscape:current-layer="svg1" />
  <!-- Generator: Sketch 52.5 (67469) - http://www.bohemiancoding.com/sketch -->
  <title
     id="title1">Atoms/Icons/Tools/Marker</title>
  <desc
     id="desc1">Created with Sketch.</desc>
  <defs
     id="defs1">
    <path
       d="M15.5,24.8782959 C15.2909201,24.8772219 15.1744857,24.8467817 14.6590866,24.2354163 C10.2196955,19.4118054 8,15.5014392 8,12.5043177 C8,8.35979746 11.3578644,5 15.5,5 C19.6421356,5 23,8.35979746 23,12.5043177 C23,17 18.2878217,21.9268378 16.3336601,24.2440186 C15.8224622,24.8501802 15.7090799,24.8793699 15.5,24.8782959 Z M15.5,15.5326948 C17.275201,15.5326948 18.7142857,14.1180004 18.7142857,12.3728864 C18.7142857,10.6277723 17.275201,9.21307792 15.5,9.21307792 C13.724799,9.21307792 12.2857143,10.6277723 12.2857143,12.3728864 C12.2857143,14.1180004 13.724799,15.5326948 15.5,15.5326948 Z"
       id="path-1" />
  </defs>
  <metadata
     id="metadata1">
    <rdf:RDF>
      <cc:Work
         rdf:about="">
        <dc:title>Atoms/Icons/Tools/Marker</dc:title>
      </cc:Work>
    </rdf:RDF>
  </metadata>
  <path
     d="m 11.864642,11.321626 c 1.569273,0 2.802269,-1.232995 2.802269,-2.8022691 0,-1.5692744 -1.232996,-2.8022738 -2.802269,-2.8022738 -1.569276,0 -2.8022748,1.2329994 -2.8022748,2.8022738 0,1.5692741 1.2329988,2.8022691 2.8022748,2.8022691 m 0,-10.64863057 c 4.371543,0 7.846359,3.47481797 7.846359,7.84636147 0,5.8287251 -7.846359,14.5718121 -7.846359,14.5718121 0,0 -7.8463625,-8.743087 -7.8463625,-14.5718121 0,-4.3715435 3.474818,-7.84636147 7.8463625,-7.84636147"
     id="path1"
     sodipodi:nodetypes="csssccscsc"
     style="fill:#ffcc00;stroke:#666666;stroke-width:1.12091;stroke-opacity:1" />
</svg>
