<?xml version="1.0" encoding="UTF-8" standalone="no"?>
<svg
   width="24px"
   height="24px"
   viewBox="0 0 24 24"
   version="1.1"
   id="svg1"
   sodipodi:docname="icon_cave_bones.svg"
   inkscape:version="1.4 (86a8ad7, 2024-10-11)"
   xmlns:inkscape="http://www.inkscape.org/namespaces/inkscape"
   xmlns:sodipodi="http://sodipodi.sourceforge.net/DTD/sodipodi-0.dtd"
   xmlns="http://www.w3.org/2000/svg"
   xmlns:svg="http://www.w3.org/2000/svg"
   xmlns:rdf="http://www.w3.org/1999/02/22-rdf-syntax-ns#"
   xmlns:cc="http://creativecommons.org/ns#"
   xmlns:dc="http://purl.org/dc/elements/1.1/">
  <ellipse
     style="fill:#ffffff;stroke:#666666;stroke-width:1.60507;stroke-linecap:round;stroke-linejoin:round;stroke-dasharray:none;fill-opacity:1;stroke-opacity:1"
     id="path7"
     cx="12.054914"
     cy="11.942538"
     rx="11.101227"
     ry="11.026231" />
  <sodipodi:namedview
     id="namedview1"
     pagecolor="#ffffff"
     bordercolor="#666666"
     borderopacity="1.0"
     inkscape:showpageshadow="2"
     inkscape:pageopacity="0.0"
     inkscape:pagecheckerboard="0"
     inkscape:deskcolor="#d1d1d1"
     inkscape:zoom="16.091788"
     inkscape:cx="9.6011705"
     inkscape:cy="8.3583005"
     inkscape:window-width="1920"
     inkscape:window-height="1009"
     inkscape:window-x="1912"
     inkscape:window-y="-8"
     inkscape:window-maximized="1"
     inkscape:current-layer="svg1" />
  <!-- Generator: Sketch 52.5 (67469) - http://www.bohemiancoding.com/sketch -->
  <title
     id="title1">Atoms/Icons/Tools/Marker</title>
  <desc
     id="desc1">Created with Sketch.</desc>
  <defs
     id="defs1">
    <path
       d="M15.5,24.8782959 C15.2909201,24.8772219 15.1744857,24.8467817 14.6590866,24.2354163 C10.2196955,19.4118054 8,15.5014392 8,12.5043177 C8,8.35979746 11.3578644,5 15.5,5 C19.6421356,5 23,8.35979746 23,12.5043177 C23,17 18.2878217,21.9268378 16.3336601,24.2440186 C15.8224622,24.8501802 15.7090799,24.8793699 15.5,24.8782959 Z M15.5,15.5326948 C17.275201,15.5326948 18.7142857,14.1180004 18.7142857,12.3728864 C18.7142857,10.6277723 17.275201,9.21307792 15.5,9.21307792 C13.724799,9.21307792 12.2857143,10.6277723 12.2857143,12.3728864 C12.2857143,14.1180004 13.724799,15.5326948 15.5,15.5326948 Z"
       id="path-1" />
  </defs>
  <metadata
     id="metadata1">
    <rdf:RDF>
      <cc:Work
         rdf:about="">
        <dc:title>Atoms/Icons/Tools/Marker</dc:title>
      </cc:Work>
    </rdf:RDF>
  </metadata>
  <path
     style="font-size:20.8352px;line-height:1.25;font-family:Arial;-inkscape-font-specification:Arial;text-align:center;text-anchor:middle;fill:#666666;stroke-width:0.388668"
     d="M 8.5652501,17.262589 V 6.1339743 h 4.1751279 q 1.275312,0 2.042018,0.3416014 0.774296,0.3340102 1.206991,1.0399864 0.440286,0.6983851 0.440286,1.4650904 0,0.7135674 -0.387148,1.3436325 -0.387148,0.630064 -1.169036,1.017213 1.009622,0.296054 1.548593,1.009622 0.546563,0.713567 0.546563,1.685233 0,0.781888 -0.334011,1.457499 -0.32642,0.668021 -0.812252,1.032395 -0.485833,0.364375 -1.222174,0.554154 -0.72875,0.182188 -1.79151,0.182188 z m 1.4726819,-6.452471 h 2.406392 q 0.979257,0 1.404361,-0.129049 0.561744,-0.167006 0.842616,-0.554154 0.288464,-0.3871483 0.288464,-0.9716662 0,-0.5541534 -0.26569,-0.9716662 -0.26569,-0.4251039 -0.759114,-0.5769267 -0.493424,-0.159414 -1.692825,-0.159414 h -2.224204 z m 0,5.139203 h 2.770766 q 0.713568,0 1.002031,-0.05313 0.508607,-0.09109 0.850208,-0.303646 0.341601,-0.212552 0.561745,-0.614882 0.220143,-0.409922 0.220143,-0.941302 0,-0.622474 -0.318829,-1.077942 -0.318827,-0.46306 -0.888163,-0.645247 -0.561744,-0.189779 -1.624504,-0.189779 h -2.573397 z"
     id="text8"
     aria-label="B" />
</svg>
