<?xml version="1.0" encoding="UTF-8" ?>
<!DOCTYPE svg PUBLIC "-//W3C//DTD SVG 1.1//EN" "http://www.w3.org/Graphics/SVG/1.1/DTD/svg11.dtd">
<svg width="100%" height="100%" viewBox="0 0 700 700" version="1.1" xmlns="http://www.w3.org/2000/svg">
<g id="#ffffffff">
</g>
<g id="#000000ff">
<path fill="#969696" opacity="1.00" d=" M 449.49 109.68 C 465.64 108.03 482.90 106.93 498.25 112.86 C 519.17 119.54 536.90 134.58 549.16 152.82 C 565.69 178.29 567.84 213.02 556.36 240.37 C 546.09 266.29 529.19 289.33 510.96 310.97 C 503.82 319.12 497.54 328.41 487.96 333.96 C 471.35 342.48 449.36 339.49 437.51 324.49 C 412.59 296.77 387.39 265.64 376.63 230.45 C 371.28 207.29 371.54 182.32 382.57 161.63 C 395.09 135.02 420.90 115.63 449.49 109.68 M 462.33 172.27 C 447.80 174.83 435.41 188.97 436.56 204.00 C 435.84 216.80 445.35 228.12 456.53 233.48 C 464.56 234.96 473.17 235.41 481.05 232.95 C 498.21 225.82 504.41 204.05 496.51 188.47 C 490.07 176.57 475.79 169.10 462.33 172.27 Z" />
<path fill="#969696" opacity="1.00" d=" M 164.44 292.52 C 174.90 290.05 187.63 291.36 195.04 299.98 C 207.34 310.19 208.62 329.46 198.99 341.99 C 191.33 352.85 176.91 356.69 164.28 353.50 C 152.10 349.21 141.14 336.66 142.53 323.00 C 141.45 309.34 151.53 296.41 164.44 292.52 Z" />
<path fill="#969696" opacity="1.00" d=" M 300.40 292.42 C 319.62 286.29 342.00 302.69 340.45 322.99 C 341.41 341.14 324.64 356.30 307.01 354.38 C 290.40 354.33 275.56 337.71 277.60 320.99 C 277.55 307.92 287.94 295.96 300.40 292.42 Z" />
<path fill="#969696" opacity="1.00" d=" M 126.39 427.37 C 144.39 422.23 163.82 436.74 165.37 454.99 C 165.49 475.60 165.38 496.22 165.43 516.84 C 167.04 518.19 168.39 519.86 169.90 521.35 C 195.05 521.68 220.21 521.37 245.37 521.50 C 245.96 500.02 245.37 478.51 245.66 457.01 C 245.27 444.33 255.31 431.95 266.26 428.38 C 283.78 421.06 304.87 434.76 308.31 451.98 C 308.57 475.22 308.54 498.47 308.33 521.71 C 335.14 522.23 361.98 522.08 388.78 521.75 C 389.02 498.83 388.31 475.85 389.16 452.95 C 391.14 431.55 419.42 419.54 435.49 430.40 C 444.78 435.59 452.07 446.07 451.52 457.01 C 451.37 478.55 451.70 500.10 451.35 521.64 C 476.65 521.33 501.97 521.50 527.28 521.55 C 529.20 519.54 532.46 518.18 531.91 514.90 C 532.71 493.99 531.76 473.02 532.40 452.10 C 535.08 440.02 545.64 429.18 558.11 427.02 C 574.00 423.66 590.74 434.20 594.32 449.97 C 594.69 478.00 594.64 506.04 594.32 534.07 C 589.22 564.33 559.62 587.52 529.00 585.40 C 407.33 585.35 285.66 585.42 164.00 585.37 C 132.82 585.49 104.27 558.15 102.64 527.99 C 102.48 503.00 102.48 478.00 102.64 453.01 C 104.24 440.91 114.58 429.65 126.39 427.37 Z" />
</g>
</svg>
