<?xml version="1.0" encoding="UTF-8" standalone="no"?>
<svg
   viewBox="0 0 960 960"
   version="1.1"
   id="svg42272"
   sodipodi:docname="nav_ok.svg"
   inkscape:version="1.1 (c68e22c387, 2021-05-23)"
   xmlns:inkscape="http://www.inkscape.org/namespaces/inkscape"
   xmlns:sodipodi="http://sodipodi.sourceforge.net/DTD/sodipodi-0.dtd"
   xmlns="http://www.w3.org/2000/svg"
   xmlns:svg="http://www.w3.org/2000/svg">
  <defs
     id="defs42276" />
  <sodipodi:namedview
     id="namedview42274"
     pagecolor="#ffffff"
     bordercolor="#666666"
     borderopacity="1.0"
     inkscape:pageshadow="2"
     inkscape:pageopacity="0.0"
     inkscape:pagecheckerboard="0"
     inkscape:document-units="pt"
     showgrid="false"
     inkscape:zoom="0.64375"
     inkscape:cx="639.2233"
     inkscape:cy="640.7767"
     inkscape:window-width="1920"
     inkscape:window-height="1009"
     inkscape:window-x="1912"
     inkscape:window-y="-8"
     inkscape:window-maximized="1"
     inkscape:current-layer="svg42272" />
  <g
     id="#fafafaff" />
  <g
     id="#000000ff"
     style="fill:#969696;fill-opacity:1">
    <path
       fill="#000000"
       opacity="1.00"
       d=" M 447.20 105.27 C 459.77 104.12 472.39 104.58 485.00 104.50 C 498.02 104.48 511.17 104.28 523.98 106.98 C 532.30 108.64 540.93 108.15 549.12 110.55 C 555.65 112.45 562.58 112.50 568.98 114.90 C 621.75 127.49 671.58 152.22 713.92 186.12 C 724.44 195.24 735.45 203.84 745.14 213.87 C 755.01 223.36 763.43 234.20 772.38 244.54 C 781.74 255.48 789.04 267.92 797.32 279.66 C 802.49 287.41 806.68 295.75 810.99 304.00 C 814.47 311.15 818.52 318.02 821.77 325.28 C 828.90 341.12 834.80 357.49 839.79 374.11 C 841.03 380.37 843.61 386.29 844.52 392.63 C 845.42 398.50 847.76 404.05 848.32 409.99 C 848.97 419.14 852.09 427.92 852.38 437.12 C 852.73 451.10 854.78 465.00 854.50 479.00 C 854.74 492.69 852.78 506.31 852.42 519.99 C 852.10 525.36 851.46 530.72 850.15 535.96 C 848.38 542.68 848.60 549.76 846.53 556.42 C 844.57 562.48 844.30 568.96 842.02 574.93 C 829.17 624.35 805.69 670.98 773.99 711.00 C 768.21 719.10 761.18 726.15 754.59 733.56 C 743.85 744.83 732.62 755.61 720.93 765.89 C 679.46 800.50 630.58 826.41 578.36 840.38 C 572.90 842.48 566.98 842.78 561.44 844.59 C 557.45 845.88 553.28 846.43 549.13 846.92 C 542.37 847.64 535.92 850.08 529.11 850.44 C 518.30 851.07 507.53 852.10 496.78 853.37 C 486.18 853.71 475.56 853.68 464.96 853.43 C 453.99 852.24 443.03 851.07 432.02 850.48 C 428.27 850.28 424.55 849.65 420.92 848.74 C 413.07 846.58 404.74 846.79 397.05 843.97 C 383.80 841.31 370.88 837.33 358.09 833.05 C 314.88 818.02 274.31 795.18 239.45 765.51 C 233.62 761.07 228.35 756.00 222.90 751.12 C 212.45 740.90 202.07 730.55 193.05 719.01 C 159.65 679.25 134.78 632.33 120.52 582.41 C 118.53 577.03 117.94 571.29 116.10 565.87 C 114.14 559.96 114.19 553.63 112.38 547.68 C 109.86 539.68 110.43 531.19 108.79 523.03 C 107.12 514.80 106.37 506.40 106.47 498.01 C 105.43 482.19 106.21 466.34 106.64 450.53 C 107.26 440.89 109.80 431.50 110.29 421.85 C 110.57 414.72 113.41 408.04 114.15 400.98 C 114.60 397.19 115.52 393.49 116.71 389.88 C 128.36 340.76 150.73 294.32 180.86 253.87 C 186.34 247.32 191.15 240.25 196.90 233.93 C 204.94 225.29 212.87 216.54 221.40 208.38 C 229.12 201.45 236.29 193.89 244.65 187.69 C 250.82 183.20 256.53 178.12 262.87 173.85 C 299.42 147.74 340.69 128.24 384.09 116.69 C 388.56 115.95 392.80 114.30 397.20 113.26 C 402.23 112.37 407.35 111.81 412.28 110.36 C 418.99 108.39 426.04 108.57 432.92 107.54 C 437.68 106.84 442.40 105.79 447.20 105.27 M 449.35 177.48 C 441.41 177.78 433.82 180.53 425.91 181.07 C 419.80 181.46 414.12 183.91 408.12 184.91 C 404.86 185.42 401.67 186.30 398.55 187.40 C 358.76 198.53 321.25 217.99 289.38 244.31 C 285.96 246.88 282.62 249.56 279.43 252.39 C 267.32 263.65 255.37 275.22 245.38 288.44 C 217.77 322.05 198.02 361.98 187.13 404.04 C 186.18 410.83 183.21 417.18 182.81 424.07 C 182.26 432.11 179.59 439.82 179.12 447.88 C 178.11 468.24 178.01 488.69 179.08 509.06 C 179.39 517.12 182.12 524.82 182.75 532.84 C 183.15 539.43 185.83 545.56 186.81 552.04 C 187.65 557.48 190.01 562.53 191.18 567.89 C 201.25 600.50 216.83 631.44 237.24 658.81 C 243.85 668.34 251.96 676.69 259.42 685.55 C 265.40 691.90 271.53 698.14 278.21 703.77 C 285.64 710.03 292.64 716.86 300.77 722.25 C 329.58 743.87 362.49 759.89 397.06 769.89 C 402.80 771.06 408.25 773.44 414.09 774.14 C 419.90 774.82 425.38 777.08 431.19 777.73 C 436.42 778.33 441.70 778.55 446.91 779.42 C 463.77 782.52 481.01 781.95 498.06 781.42 C 505.39 780.89 512.60 779.33 519.91 778.62 C 525.95 778.13 532.05 777.72 537.89 775.98 C 543.80 774.17 550.09 774.06 555.91 771.87 C 604.23 759.55 649.28 734.70 685.84 700.82 C 695.55 691.23 705.43 681.73 713.93 671.01 C 718.61 664.68 723.84 658.75 728.13 652.13 C 749.16 622.10 764.75 588.20 773.57 552.62 C 774.87 548.82 775.61 544.87 776.15 540.89 C 776.86 535.86 778.71 531.06 779.32 526.01 C 780.07 519.66 780.20 513.25 781.14 506.93 C 782.33 498.67 783.29 490.35 783.00 482.00 C 783.24 471.63 782.73 461.26 781.19 450.99 C 779.81 442.10 780.26 432.94 777.75 424.23 C 775.99 418.28 775.94 411.97 773.93 406.08 C 772.76 402.71 772.04 399.22 771.21 395.77 C 767.62 383.76 763.38 371.96 758.85 360.28 C 755.17 351.78 750.71 343.65 746.67 335.33 C 742.01 325.40 735.61 316.45 729.78 307.19 C 718.60 291.61 706.02 277.07 692.60 263.39 C 682.58 254.38 672.99 244.80 661.99 236.97 C 627.88 211.16 588.16 192.62 546.36 183.53 C 542.34 182.29 538.22 181.34 534.02 181.00 C 527.21 180.42 520.63 178.41 513.86 177.65 C 508.91 177.29 503.96 176.82 499.00 177.00 C 482.46 175.96 465.87 176.61 449.35 177.48 Z"
       id="path42267"
       style="fill:#969696;fill-opacity:1" />
    <path
       fill="#000000"
       opacity="1.00"
       d=" M 577.04 342.06 C 604.48 327.13 632.42 313.11 660.03 298.48 C 644.69 328.04 629.46 357.66 614.19 387.26 C 612.40 391.05 610.06 394.52 608.18 398.26 C 586.04 441.42 564.00 484.63 541.49 527.60 C 539.67 531.50 537.24 535.29 533.58 537.70 C 527.25 542.00 519.98 544.57 513.27 548.15 C 506.93 551.58 500.51 554.87 494.05 558.07 C 486.92 561.91 479.87 565.92 472.58 569.46 C 442.69 585.02 412.70 600.40 382.73 615.82 C 379.60 617.22 376.86 619.30 373.82 620.87 C 349.33 633.53 324.94 646.42 300.43 659.04 C 315.99 628.77 331.66 598.54 347.23 568.27 C 348.63 565.40 350.53 562.82 351.94 559.96 C 372.58 519.88 392.99 479.69 413.86 439.74 C 416.56 434.54 418.92 429.12 422.28 424.31 C 424.48 421.09 428.02 419.22 431.34 417.36 C 480.00 392.44 528.37 366.95 577.04 342.06 M 472.45 447.58 C 463.64 449.63 456.35 456.13 451.83 463.79 C 448.37 469.54 448.22 476.50 448.56 483.01 C 449.44 493.15 455.94 502.50 464.92 507.20 C 470.32 509.92 476.33 512.04 482.47 511.43 C 494.31 509.95 505.41 502.14 509.97 490.99 C 511.99 486.01 513.86 480.52 512.56 475.11 C 511.03 467.62 507.74 460.20 502.02 454.97 C 496.70 450.52 490.12 446.92 483.00 446.99 C 479.48 446.99 475.91 446.77 472.45 447.58 Z"
       id="path42269"
       style="fill:#969696;fill-opacity:1" />
  </g>
</svg>
